<svg id="Layer_1" data-name="Layer 1" xmlns="http://www.w3.org/2000/svg" viewBox="0 0 454.46 160.47"><defs><style>.cls-1{fill:#fff;}</style></defs><path class="cls-1" d="M118.35,197v30.27H94.79V197H23.24V178.15L74.44,72.93H98.86L50.23,174.51H94.79V139h23.56v35.56l38,0v14.2c0,12,4.08,18.93,14.19,18.93,6.89,0,13.77-3.23,13.77-14.84,0-14.42-10.76-24.1-23.88-36.57-12.9-12.48-26.88-26.68-26.88-48.83,0-19.79,11-37.65,37.21-37.65,22.59,0,36.35,13.12,36.35,42.16v9.9H183.24v-8.6c0-15.71-4.31-21.3-12.48-21.3-8.61,0-12.48,6.45-12.48,14.41,0,12,9,20.87,22.59,34.2,15.92,15.71,28.18,29,28.18,50.34,0,24.09-15.7,39.36-38.29,39.36-21.45,0-35.47-13.6-37.91-33.29Z" transform="translate(-23.24 -69.79)"/><path class="cls-1" d="M268.84,95.39V227.68h-25.6V95.39H215.92v-23h79.81v23Z" transform="translate(-23.24 -69.79)"/><path class="cls-1" d="M382.41,192c0,23.23-15.06,38.28-38.93,38.28s-38.94-15-38.94-38.28v-83.9c0-23.23,15.06-38.29,38.94-38.29s38.93,15.06,38.93,38.29ZM356.6,107.44c0-8.18-2.8-15.06-13.12-15.06s-13.12,6.88-13.12,15.06v85.18c0,8.17,2.79,15.06,13.12,15.06s13.12-6.89,13.12-15.06Z" transform="translate(-23.24 -69.79)"/><path class="cls-1" d="M439.62,165.3H425.21v62.38H399.4V72.37h40.22c30.76,0,38.08,19.36,38.08,46.47S470.38,165.3,439.62,165.3Zm-2.15-71.63H425.21v50.12h12.26c12.91,0,14.85-8.17,14.85-25.17C452.32,101.84,450.38,93.67,437.47,93.67Z" transform="translate(-23.24 -69.79)"/></svg>