<svg id="Layer_1" data-name="Layer 1" xmlns="http://www.w3.org/2000/svg" viewBox="0 0 225.19 79.51"><defs><style>.cls-1{fill:#c02429;}</style></defs><path class="cls-1" d="M319,299.94V282.32h11.68v17.62h10.83v11.15H330.71v15H319v-15H283.58v-9.34L309,249.61h12.1L297,299.94Z" transform="translate(-283.58 -248.06)"/><path class="cls-1" d="M361.69,283.12c7.89,7.78,14,14.39,14,24.94,0,11.94-7.78,19.51-19,19.51-11.73,0-19-8.21-19-19.61v-8h11.83v7c0,6,2,9.38,7,9.38,3.41,0,6.82-1.6,6.82-7.36,0-7.14-5.33-11.93-11.83-18.12s-13.32-13.21-13.32-24.19c0-9.81,5.43-18.65,18.44-18.65,11.19,0,18,6.5,18,20.89v4.9H362.86v-4.26c0-7.78-2.13-10.56-6.18-10.56-4.27,0-6.18,3.2-6.18,7.15C350.5,272.15,355,276.51,361.69,283.12Z" transform="translate(-283.58 -248.06)"/><path class="cls-1" d="M405.28,260.74v65.55H392.6V260.74H379.06V249.33H418.6v11.41Z" transform="translate(-283.58 -248.06)"/><path class="cls-1" d="M461.56,308.6c0,11.51-7.47,19-19.3,19S423,320.11,423,308.6V267c0-11.51,7.46-19,19.29-19s19.3,7.46,19.3,19Zm-12.8-41.89c0-4-1.38-7.46-6.5-7.46s-6.5,3.41-6.5,7.46v42.21c0,4.05,1.39,7.46,6.5,7.46s6.5-3.41,6.5-7.46Z" transform="translate(-283.58 -248.06)"/><path class="cls-1" d="M489.9,295.38h-7.14v30.91H470v-77H489.9c15.25,0,18.87,9.6,18.87,23S505.15,295.38,489.9,295.38Zm-1.06-35.49h-6.08v24.83h6.08c6.39,0,7.35-4.05,7.35-12.47S495.23,259.89,488.84,259.89Z" transform="translate(-283.58 -248.06)"/></svg>