<svg id="Layer_13" data-name="Layer 13" xmlns="http://www.w3.org/2000/svg" xmlns:xlink="http://www.w3.org/1999/xlink" viewBox="0 0 220.031 233.863"><defs><style>.cls-1,.cls-4,.cls-6,.cls-7,.cls-9{fill:none;}.cls-2{fill:#bf2026;}.cls-3{clip-path:url(#clip-path);}.cls-4,.cls-6,.cls-7,.cls-9{stroke:#fff;}.cls-4{stroke-width:11px;}.cls-5{fill:#fff;stroke:#bf2026;stroke-width:2px;}.cls-5,.cls-7,.cls-9{stroke-miterlimit:10;}.cls-6{stroke-width:9px;}.cls-7{stroke-width:5px;}.cls-8{fill:#bf2629;}.cls-9{stroke-width:7px;}</style><clipPath id="clip-path" transform="translate(-14.645 -9.3479)"><path class="cls-1" d="M44.12,105.45a24.2992,24.2992,0,0,1,14.9063-5.0857,24.6681,24.6681,0,1,1-5.7135,48.6622L55.01,161.8741l8.8176,2.2174h12.114l6.8843-2.6331L86.2676,149.54l4.5436-9.84,2.5686-7.4725,3.9027-15.8094L94.72,106.3017,91.775,90.0872l-9.7757-8.315H51.846L41.6572,94.8176Z"/></clipPath></defs><path class="cls-2" d="M20.3574,168.5777a121.6592,121.6592,0,0,1,32.0313-8.6647l-7.6145,16.8337,11.2949,23.0215a319.0013,319.0013,0,0,1-32.8907-2.9594,9.1353,9.1353,0,0,1-7.1864-7.2926c-.4549-3.8513-.8817-7.7091-1.308-11.5633C14.3,174.59,16.7932,170.2509,20.3574,168.5777Z" transform="translate(-14.645 -9.3479)"/><polygon class="cls-2" points="49.996 156.084 58.955 156.071 63.428 161.088 58.978 171.678 61.927 190.909 47.126 190.931 50.019 171.691 45.538 161.115 49.996 156.084"/><path class="cls-2" d="M79.4522,121.2952a20.793,20.793,0,1,0-37.7365,15.352L31.1,147.3308a2.9351,2.9351,0,0,0,0,4.1312l1.6426,1.6533a2.8892,2.8892,0,0,0,4.1043,0l10.6144-10.6836A20.5933,20.5933,0,0,0,59,145.95a20.8631,20.8631,0,0,0,20.46-17.2171,22.3491,22.3491,0,0,0-.0075-7.4377m-6.3765,7.5588a15.4135,15.4135,0,0,1-3.77,6.5505A14.5233,14.5233,0,0,1,51.973,137.89a14.7323,14.7323,0,0,1-3.2775-23.23,14.5087,14.5087,0,0,1,20.61,0,14.6286,14.6286,0,0,1,3.6947,6.28,13.566,13.566,0,0,1,.0751,7.9144" transform="translate(-14.645 -9.3479)"/><path class="cls-2" d="M85.8791,159.9378a121.562,121.562,0,0,1,31.4385,8.4982c3.5691,1.6656,6.0743,5.9944,5.7,9.3585-.4158,3.8555-.8315,7.7145-1.2753,11.5672a9.135,9.135,0,0,1-7.1646,7.3135,321.2773,321.2773,0,0,1-32.2925,3.0329l11.2285-23.0326Z" transform="translate(-14.645 -9.3479)"/><path class="cls-1" d="M110.4807,198.7768a17.38,17.38,0,0,1,2.0542-33.6181q.2535-.047.5067-.0862l-12.3692-3.6777-5.3175-2.2765s-11.428-1.54-11.428-1.1245-3.4421,44.9014-3.4421,44.9014l17.6795-1.8576Z" transform="translate(-14.645 -9.3479)"/><g class="cls-3"><path class="cls-2" d="M54.0817,145.8225c-2.67-1.7277-4.5981-4.2685-4.7974-6.3885-.3131-2.6741-.6117-5.3454-.9247-8.0195a2.289,2.289,0,0,1-1.4455.73,2.3122,2.3122,0,0,1-2.5445-2.07l-1.2817-12.3515a2.3123,2.3123,0,0,1,2.0467-2.5575,2.2571,2.2571,0,0,1,1.3485.2738c-.27-2.3493-.5546-4.7022-.8247-7.0479-.2153-3.2184-1.8-11.8029,4.3418-17.3485,8.9045-8.8255,28.5211-8.8542,37.45-.0547,6.1722,5.5276,4.5979,14.1167,4.3918,17.3357-.277,2.35-.54,4.7-.8036,7.05a2.2565,2.2565,0,0,1,1.3477-.2776,2.3327,2.3327,0,0,1,2.0678,2.5514l-1.26,12.3552a2.3045,2.3045,0,0,1-3.9855,1.3518q-.4373,4.0071-.9015,8.0222c-.1931,2.1206-2.1133,4.6634-4.779,6.3989q-.8131,5.8151-1.6122,11.6379c-.1938,1.7283-2.901,3.9582-6.0313,4.5178a51.899,51.899,0,0,1-14.1123.0207c-3.1326-.55-5.8455-2.7725-6.0306-4.5Q54.9112,151.6341,54.0817,145.8225Z" transform="translate(-14.645 -9.3479)"/></g><path class="cls-4" d="M204.9774,213.2341a103.9457,103.9457,0,0,1-26.0309-10.4361l1.8436-11.6238a4.2125,4.2125,0,0,0-2.6985-4.6062l-8.2535-3.0412c.019-.7333.038-1.4856.0654-2.2885,0-17.42-1.5784-6.185-2.5892-5.2741-.5817.53-.5135,21.4057-.5135,22.255,0,4.7892-7.27,10.3418-17.3129,12.0828-.0464.0123-.0682.0221-.1228.0355-3.466.71-6.6914,9.4569-6.5877,17.4265v9.9468h86.3985C229.1759,227.3993,221.2419,217.5945,204.9774,213.2341Zm-74.026-4.63c-6.9619-2.6806-11.6023-7.1884-11.6023-10.3854,0-.8493.0549-21.9424-.5269-22.4721-1.0107-.9122-2.57-16.6562-2.57,5.4912.0218.84.0411,1.6235.063,2.3775l-7.9914,2.9522a4.2073,4.2073,0,0,0-2.6958,4.6062l1.819,11.4888a103.865,103.865,0,0,1-26.2687,10.5711c-16.2669,4.36-24.2038,14.1652-24.2038,24.4767h85.7511C142.0782,224.1738,135.1929,210.6258,130.9514,208.6046Z" transform="translate(-14.645 -9.3479)"/><path class="cls-4" d="M108.146,164.0207a3.0962,3.0962,0,0,0,5.1619,1.0119,48.31,48.31,0,0,1,.9749,5.1292c.5709,4.9393,4.1952,9.0567,8.2591,12.5825C135.933,194.341,135.7993,195.9,143.075,195.9c9.6686,0,6.9784-1.4229,20.5359-13.1561,4.0748-3.5258,7.691-7.6432,8.2646-12.5825a48.4025,48.4025,0,0,1,.9778-5.1292,3.0945,3.0945,0,0,0,5.1591-1.0119c1.4532-2.9768,1.1226-3.6011,3.365-7.3263,2.6765-4.4382,2.5426-11.8739,2.3678-15.9694-.1474-3.4277-4.7248-5.0266-6.23-2.0061.06-1.0379.1038-2.1725.1175-3.4263.3387-5.9322,1.251-7.7987,1.6333-12.52.262-3.2694-5.4925-13.6464-7-15.75-5.7-7.9681-8.158-9.0729-11.9269-10.6555-3.8019-1.6087-9.1-3.4973-18.4465-3.817-13.9591-.4808-23.4336,8.9993-26.3861,13.0429-2.7749,3.7962-8.4912,10.3745-8.2727,14.5257.2184,4.0874.8849,10.3118,1.2728,13.75.0053,1.84.0517,3.4333.1336,4.8521-1.5046-3.0247-6.0767-1.4216-6.2269,2.0033-.1748,4.0955-.306,11.5312,2.3652,15.9694C107.0261,160.42,106.6956,161.0439,108.146,164.0207Z" transform="translate(-14.645 -9.3479)"/><path class="cls-4" d="M183.8327,109.2578l-7.0492-1.48,3.8237-7.4754L170.7149,98.39l4.7111-5.8091-14.2785-.07,2.5045-7.7827-14.21,5.3381-3.3155-7.9517-7.0629,7.35-4.4494-5.7778L127.2916,92.63l-5.233-3.9478-3.0344,12.2972-4.55-5.4978-4.187,14.6759-4.4462-5.8337.2567,17.3456s.5488-.1773,1.5321-.45c-1.3192,9.1428,1.2809,18.2171,2.4908,23.86.519-.0207.4069,1.039.448,1.6154,1.8025-1.4353,2.1848-2.6315,3.9767-4.0038,1.8872-1.5528,1.0625-1.7768,1.0023-3.1083.8765-5.6357-1.0871-13.8853,3.4165-16.1439,17.9414-9.0022,36.92-5.0283,49.26-2.6357a8.4383,8.4383,0,0,1,1.1335.3127c4.269,29.82-4.2714,17.1367,6.5111,25.7319l.6338-11.9a40.7207,40.7207,0,0,0,3.9437-15.43C180.6318,119.5747,183.8327,109.2578,183.8327,109.2578Z" transform="translate(-14.645 -9.3479)"/><path class="cls-2" d="M204.9774,213.2341a103.9457,103.9457,0,0,1-26.0309-10.4361l1.8436-11.6238a4.2125,4.2125,0,0,0-2.6985-4.6062l-8.2535-3.0412c.019-.7333.038-1.4856.0654-2.2885,0-17.42-1.5784-6.185-2.5892-5.2741-.5817.53-.5135,21.4057-.5135,22.255,0,4.7892-7.27,10.3418-17.3129,12.0828-.0464.0123-.0682.0221-.1228.0355-3.466.71-6.6914,9.4569-6.5877,17.4265v9.9468h86.3985C229.1759,227.3993,221.2419,217.5945,204.9774,213.2341Zm-74.026-4.63c-6.9619-2.6806-11.6023-7.1884-11.6023-10.3854,0-.8493.0549-21.9424-.5269-22.4721-1.0107-.9122-2.57-16.6562-2.57,5.4912.0218.84.0411,1.6235.063,2.3775l-7.9914,2.9522a4.2073,4.2073,0,0,0-2.6958,4.6062l1.819,11.4888a103.865,103.865,0,0,1-26.2687,10.5711c-16.2669,4.36-24.2038,14.1652-24.2038,24.4767h85.7511C142.0782,224.1738,135.1929,210.6258,130.9514,208.6046Z" transform="translate(-14.645 -9.3479)"/><path class="cls-5" d="M108.146,164.0207a3.0962,3.0962,0,0,0,5.1619,1.0119,48.31,48.31,0,0,1,.9749,5.1292c.5709,4.9393,4.1952,9.0567,8.2591,12.5825C135.933,194.341,135.7993,195.9,143.075,195.9c9.6686,0,6.9784-1.4229,20.5359-13.1561,4.0748-3.5258,7.691-7.6432,8.2646-12.5825a48.4025,48.4025,0,0,1,.9778-5.1292,3.0945,3.0945,0,0,0,5.1591-1.0119c1.4532-2.9768,1.1226-3.6011,3.365-7.3263,2.6765-4.4382,2.5426-11.8739,2.3678-15.9694-.1474-3.4277-4.7248-5.0266-6.23-2.0061.06-1.0379.1038-2.1725.1175-3.4263.3387-5.9322,1.251-7.7987,1.6333-12.52.262-3.2694-5.4925-13.6464-7-15.75-5.7-7.9681-8.158-9.0729-11.9269-10.6555-3.8019-1.6087-9.1-3.4973-18.4465-3.817-13.9591-.4808-23.4336,8.9993-26.3861,13.0429-2.7749,3.7962-8.4912,10.3745-8.2727,14.5257.2184,4.0874.8849,10.3118,1.2728,13.75.0053,1.84.0517,3.4333.1336,4.8521-1.5046-3.0247-6.0767-1.4216-6.2269,2.0033-.1748,4.0955-.306,11.5312,2.3652,15.9694C107.0261,160.42,106.6956,161.0439,108.146,164.0207Z" transform="translate(-14.645 -9.3479)"/><path class="cls-2" d="M183.8327,109.2578l-7.0492-1.48,3.8237-7.4754L170.7149,98.39l4.7111-5.8091-14.2785-.07,2.5045-7.7827-14.21,5.3381-3.3155-7.9517-7.0629,7.35-4.4494-5.7778L127.2916,92.63l-5.233-3.9478-3.0344,12.2972-4.55-5.4978-4.187,14.6759-4.4462-5.8337.2567,17.3456s.5488-.1773,1.5321-.45c-1.3192,9.1428,1.2809,18.2171,2.4908,23.86.519-.0207.4069,1.039.448,1.6154,1.8025-1.4353,2.1848-2.6315,3.9767-4.0038,1.8872-1.5528,1.0625-1.7768,1.0023-3.1083.8765-5.6357-1.0871-13.8853,3.4165-16.1439,17.9414-9.0022,36.92-5.0283,49.26-2.6357a8.4383,8.4383,0,0,1,1.1335.3127c4.269,29.82-4.2714,17.1367,6.5111,25.7319l.6338-11.9a40.7207,40.7207,0,0,0,3.9437-15.43C180.6318,119.5747,183.8327,109.2578,183.8327,109.2578Z" transform="translate(-14.645 -9.3479)"/><path class="cls-6" d="M138.1487,148.8172a24.9274,24.9274,0,1,1,45.2592,18.293l12.7326,12.73a3.4811,3.4811,0,0,1,0,4.9226l-1.97,1.97a3.4812,3.4812,0,0,1-4.9226,0l-12.73-12.73A24.9346,24.9346,0,0,1,138.14,157.68a26.4622,26.4622,0,0,1,.009-8.8625m7.6477,9.0067a18.3372,18.3372,0,0,0,4.5213,7.8055,17.5057,17.5057,0,0,0,20.7882,2.9616,17.646,17.646,0,0,0,6.89-6.8925,17.4834,17.4834,0,1,0-32.11-13.3051,16.065,16.065,0,0,0-.09,9.43" transform="translate(-14.645 -9.3479)"/><path class="cls-2" d="M138.1487,148.8172a24.9274,24.9274,0,1,1,45.2592,18.293l12.7326,12.73a3.4811,3.4811,0,0,1,0,4.9226l-1.97,1.97a3.4812,3.4812,0,0,1-4.9226,0l-12.73-12.73A24.9346,24.9346,0,0,1,138.14,157.68a26.4622,26.4622,0,0,1,.009-8.8625m7.6477,9.0067a18.3372,18.3372,0,0,0,4.5213,7.8055,17.5057,17.5057,0,0,0,20.7882,2.9616,17.646,17.646,0,0,0,6.89-6.8925,17.4834,17.4834,0,1,0-32.11-13.3051,16.065,16.065,0,0,0-.09,9.43" transform="translate(-14.645 -9.3479)"/><path class="cls-7" d="M167.8141,31.0581c.17-.523.4481-.523.6181,0l4.9429,15.2129a1.4709,1.4709,0,0,0,1.309.951H190.68c.55,0,.6359.2645.1909.5878L177.93,57.2119a1.4711,1.4711,0,0,0-.5,1.5388l4.943,15.2128c.17.5231-.0551.6866-.5.3633l-12.9408-9.402a1.471,1.471,0,0,0-1.6181,0l-12.9408,9.402c-.4449.3233-.67.16-.5-.3633l4.943-15.2128a1.4711,1.4711,0,0,0-.5-1.5388L145.3755,47.81c-.445-.3233-.359-.5878.191-.5878h15.9957a1.4709,1.4709,0,0,0,1.309-.951Z" transform="translate(-14.645 -9.3479)"/><polygon class="cls-8" points="153.478 20.759 159.039 37.874 177.035 37.874 162.476 48.452 168.037 65.567 153.478 54.989 138.919 65.567 144.48 48.452 129.922 37.874 147.917 37.874 153.478 20.759"/><path class="cls-7" d="M66.7294,31.0581c.17-.523.4481-.523.6181,0L72.29,46.271a1.4709,1.4709,0,0,0,1.309.951H89.5952c.55,0,.6359.2645.1909.5878L76.8453,57.2119a1.4711,1.4711,0,0,0-.5,1.5388l4.943,15.2128c.17.5231-.0551.6866-.5.3633l-12.9408-9.402a1.471,1.471,0,0,0-1.6181,0l-12.9408,9.402c-.4449.3233-.67.16-.5-.3633l4.943-15.2128a1.4711,1.4711,0,0,0-.5-1.5388L44.2908,47.81c-.445-.3233-.359-.5878.191-.5878H60.4775a1.4709,1.4709,0,0,0,1.309-.951Z" transform="translate(-14.645 -9.3479)"/><polygon class="cls-8" points="52.393 20.759 57.954 37.874 75.95 37.874 61.391 48.452 66.952 65.567 52.393 54.989 37.835 65.567 43.396 48.452 28.837 37.874 46.833 37.874 52.393 20.759"/><path class="cls-9" d="M117.3749,13.24c.17-.5231.4481-.5231.6181,0l5.9831,18.4141a1.4709,1.4709,0,0,0,1.309.951h19.3617c.55,0,.6359.2645.191.5878l-15.664,11.38a1.4713,1.4713,0,0,0-.5,1.5389l5.9831,18.414c.17.5231-.055.6866-.5.3633l-15.6639-11.38a1.471,1.471,0,0,0-1.6181,0L101.211,64.89c-.4449.3233-.67.16-.5-.3633l5.9831-18.414a1.4709,1.4709,0,0,0-.5-1.5389L90.53,33.1931c-.445-.3233-.359-.5878.191-.5878h19.3616a1.4712,1.4712,0,0,0,1.3091-.951Z" transform="translate(-14.645 -9.3479)"/><polygon class="cls-8" points="103.039 2.941 109.64 23.257 131.002 23.257 113.72 35.814 120.321 56.13 103.039 43.574 85.757 56.13 92.358 35.814 75.076 23.257 96.438 23.257 103.039 2.941"/></svg>