<svg id="Layer_1" data-name="Layer 1" xmlns="http://www.w3.org/2000/svg" viewBox="0 0 197.8651 226.7831"><defs><style>.cls-1{fill:#bf2629;}.cls-2,.cls-4{fill:none;}.cls-2{stroke:#bf2629;stroke-miterlimit:10;stroke-width:4px;}.cls-3{fill:#fff;}.cls-4{stroke:#fff;stroke-width:10px;}.cls-5{fill:#be2227;}</style></defs><path class="cls-1" d="M184.4277,160.5116l-13.0636-1.8057c0-.4883,0-1.0081,0-1.5279q-.03-42.1739-.0807-84.3478c-.0063-3.1862-.2257-6.3769-.467-9.5563-.22-2.9029-1.4573-4.2238-4.34-4.612a41.07,41.07,0,0,0-5.0739-.2209c-3.5538-.0342-7.1084.0065-10.6618-.0438-.8762-.0125-1.1926.2223-1.2321,1.1352a47.463,47.463,0,0,1-.4766,4.9377,4.4578,4.4578,0,0,1-4.41,4.2062c-4.7147.2479-9.44.4054-14.1609.4011-18.2137-.0165-36.4273-.11-54.6409-.1827-.8062-.0032-1.6154-.05-2.4176-.1328-2.9723-.3053-4.5865-1.8852-4.8019-4.8855-.1264-1.76-.023-3.536-.023-5.3975-.6421-.038-1.0306-.0807-1.4191-.081-5.25-.0045-10.5011-.0282-15.7509.0289a3.5165,3.5165,0,0,0-1.93.7166A7.2879,7.2879,0,0,0,46.39,65.355c-.0063,14.8653-.21,29.73-.2038,44.5957q.0182,45.2642.1954,90.5282c.0146,4.6431.1664,9.2883.3717,13.9273a5.1814,5.1814,0,0,0,5.3484,5.2451c5.1626.2012,10.33.3595,15.4962.3738q27.6247.0762,55.25.012c1.143-.0021,1.5082.37,1.8953,1.4117,1.2338,3.3187,2.6612,6.5655,4.0177,9.8385.21.5075.4405,1.0068.76,1.7351-3.49,0-6.75.0024-10.0092,0q-30.5317-.0265-61.0635-.0788a76.8231,76.8231,0,0,1-9.3042-.5544c-6.2944-.79-10.4005-4.7362-13.5874-9.8873a12.8785,12.8785,0,0,1-1.8884-7.0824q.102-76.1676.0087-152.3354a14.2939,14.2939,0,0,1,1.6506-6.9175,19.9157,19.9157,0,0,1,7.5354-8.1605,48.4036,48.4036,0,0,1,4.4344-2.2119,3.6069,3.6069,0,0,1,1.4122-.2089q9.1458-.1435,18.292-.2618c.4341-.0062.8678-.04,1.3494-.0628.072-1.47.0921-2.8389.2155-4.1986.2679-2.9523,1.9386-4.9061,4.8673-5.1078,4.4244-.3049,8.87-.36,13.3069-.393,1.28-.01,1.6744-.3028,1.7753-1.6356a20.464,20.464,0,0,1,21.438-18.8173c9.5079.4979,17.726,8.1221,19.2193,17.8234.1276.8291.2951,1.6519.4938,2.7531,3.4757,0,6.9031-.0021,10.3305.0014.9288.0009,1.863-.04,2.7851.0434,1.1306.1023,2.4671-.0155,3.3309.549a7.062,7.062,0,0,1,3.1647,5.0953c.1691,1.2707.2267,2.5563.3467,3.98.427,0,.858-.001,1.2891,0,4.806.0123,9.613-.0324,14.4178.05,8.1338.14,13.7617,4.2431,17.3431,11.3363,1.4984,2.9677,1.43,6.28,1.4817,9.4958q.2271,14.2368.2586,28.4765.0534,32.2971.0121,64.5942ZM108.79,45.1766a9.6825,9.6825,0,0,0,9.6235-9.8936,9.41,9.41,0,0,0-9.7285-9.3029,9.5874,9.5874,0,0,0-9.4787,9.4951A9.7733,9.7733,0,0,0,108.79,45.1766Z" transform="translate(-33.6686 -15.0799)"/><path class="cls-1" d="M126.1419,100.0712c-7.8416-.2124-15.7933-.4081-23.7433-.655a4.8181,4.8181,0,0,1-4.7033-3.6588c-.5945-2.8976.3343-5.1758,2.7205-6.1988a7.7788,7.7788,0,0,1,2.9489-.5039q21.6826-.1506,43.3656-.2234c1.1286-.0044,2.2583.1091,3.3863.1847a5.049,5.049,0,0,1,4.5752,5.31c-.0049,2.8619-1.8465,4.9918-4.5792,5.08C142.1628,99.6632,134.2108,99.8522,126.1419,100.0712Z" transform="translate(-33.6686 -15.0799)"/><path class="cls-1" d="M126.1419,190.4162c-7.8416-.2124-15.7933-.4081-23.7433-.655a4.8181,4.8181,0,0,1-4.7033-3.6588c-.5945-2.8976.3343-5.1758,2.7205-6.1988a7.7808,7.7808,0,0,1,2.9489-.504q21.6826-.15,43.3656-.2233c1.1286-.0044,2.2583.1091,3.3863.1847a5.049,5.049,0,0,1,4.5752,5.31c-.0049,2.8619-1.8465,4.9918-4.5792,5.08C142.1628,190.0082,134.2108,190.1972,126.1419,190.4162Z" transform="translate(-33.6686 -15.0799)"/><path class="cls-1" d="M125.48,119.3109c7.3436,0,14.6873-.0161,22.0308.016a19.5577,19.5577,0,0,1,3.6047.36c2.3656.4572,3.56,2.171,3.5393,4.8847-.0215,2.8138-1.2141,4.6462-3.6419,4.905a100.5427,100.5427,0,0,1-10.254.58c-11.298.0426-22.5966-.0117-33.8946-.08a33.13,33.13,0,0,1-5.4128-.4665c-2.8148-.4859-4.0466-2.3565-3.8406-5.4865a4.6739,4.6739,0,0,1,4.6289-4.66c3.5878-.1446,7.18-.2083,10.7707-.2425,4.1562-.0395,8.313-.0092,12.4695-.0092Z" transform="translate(-33.6686 -15.0799)"/><path class="cls-1" d="M126.1885,149.8552q11.3173,0,22.6347.0021c.4032,0,.8071.0542,1.2094.0423a4.097,4.097,0,0,1,4.3219,2.9888c.7577,2.1389.6236,4.2765-1.0977,5.8141a6.3094,6.3094,0,0,1-3.5163,1.28c-3.1718.2578-6.3647.34-9.5492.34-12.6707-.0026-25.3414-.0641-38.012-.1025a5.4249,5.4249,0,0,1-4.5226-3.9463c-.6343-4.1366,1.3558-6.5825,5.5313-6.6086,7.6666-.0478,15.3337-.0136,23.0006-.0136Z" transform="translate(-33.6686 -15.0799)"/><path class="cls-1" d="M72.3325,95.2605c1.5619-2.0763,3.0305-4.0945,4.5685-6.0584,2.5359-3.2382,5.1453-6.4192,7.6668-9.6684a3.02,3.02,0,0,1,4.3652-.7954c1.92,1.1085,2.2613,2.5445,1.2062,4.5273a27,27,0,0,1-2.1811,3.4786Q81.7294,95.0787,75.4168,103.35c-1.741,2.27-4.3489,2.32-6.1073.0637-2.7252-3.4961-5.3425-7.0783-7.9355-10.6745a3.4139,3.4139,0,0,1,.7008-4.74,3.2247,3.2247,0,0,1,4.4826.3012c1.6651,1.7448,3.1318,3.6793,4.6766,5.5382C71.5917,94.2685,71.9194,94.7238,72.3325,95.2605Z" transform="translate(-33.6686 -15.0799)"/><path class="cls-1" d="M72.3866,125.6017c1.6051-2.146,3.093-4.2,4.6493-6.2013,2.5023-3.2175,5.0722-6.3825,7.5689-9.6043a3.0093,3.0093,0,0,1,4.3718-.7526c1.8888,1.1208,2.27,2.5231,1.1948,4.4249a50.8019,50.8019,0,0,1-3.5011,5.3641c-3.3795,4.5283-6.8227,9.01-10.2892,13.472a14.7389,14.7389,0,0,1-2.4761,2.4718,2.418,2.418,0,0,1-3.5827-.2618Q65.6307,128.67,61.1478,122.66c-.9429-1.2677-.41-3.1487.9072-4.3451a3.1378,3.1378,0,0,1,4.112-.0595,42.1534,42.1534,0,0,1,3.5846,3.9206C70.6375,123.22,71.427,124.3459,72.3866,125.6017Z" transform="translate(-33.6686 -15.0799)"/><rect class="cls-2" x="31.4026" y="127.1162" width="21.2922" height="21.2922" rx="1"/><rect class="cls-2" x="31.4026" y="159.0702" width="21.2922" height="21.2922" rx="1"/><rect class="cls-3" x="113.8684" y="108.5282" width="41.9579" height="53.6485"/><path class="cls-4" d="M220.4091,203.4455a130.4472,130.4472,0,0,0-35.1119-9.2182l1.7534-12.426a8.2713,8.2713,0,0,0,2.4443-4.5447c.3228-2.8436.66-5.6835.9859-8.5238a2.4448,2.4448,0,0,0,4.25-1.4129l.3057-2.9651a12.9326,12.9326,0,0,0,3.3019-5.1107,2.3643,2.3643,0,0,0,1.1109.5486,2.4508,2.4508,0,0,0,2.8507-1.9963l.7082-3.9755a2.4592,2.4592,0,0,0-3.8124-2.4546,12.02,12.02,0,0,0-1.1664-4.0068,28.3685,28.3685,0,0,0,1.7047-5.1072,22.7142,22.7142,0,0,0-1.8054-16.1481,2.3883,2.3883,0,0,0-.1944-2.045c-5.104-8.9714-16.4745-15.2382-28.9425-15.1863-12.4641-.0519-23.8314,6.2149-28.9457,15.1863a2.3718,2.3718,0,0,0-.1909,2.0383,22.6978,22.6978,0,0,0-1.8157,16.1548,29.4355,29.4355,0,0,0,1.7151,5.1072,12.1044,12.1044,0,0,0-1.1665,4.0068,2.4616,2.4616,0,0,0-3.8159,2.4546l.7086,3.9755a2.4521,2.4521,0,0,0,2.8467,1.9963,2.36,2.36,0,0,0,1.1181-.5522,12.814,12.814,0,0,0,3.0277,4.795l.3367,3.2844a2.4479,2.4479,0,0,0,4.2567,1.41q.4944,4.2653.993,8.527a8.214,8.214,0,0,0,2.4475,4.5656l1.736,12.4051a130.5557,130.5557,0,0,0-35.1222,9.2182c-3.8017,1.7709-6.482,6.3643-6.0725,9.93q.6768,6.135,1.3784,12.2664c.4131,3.5656,3.8575,7.086,7.6556,7.7423a343.7617,343.7617,0,0,0,97.5655,0c3.8123-.6563,7.246-4.1767,7.6694-7.7423q.7034-6.135,1.3784-12.2664C226.8879,209.81,224.2282,205.2164,220.4091,203.4455Zm-58.8669-4.5935c-2.6039-.4547-4.3712-2.1594-4.5206-2.8019l-1.5206-10.7142a13.59,13.59,0,0,0,1.9409.5867,68.1964,68.1964,0,0,0,22.453,0,12.9154,12.9154,0,0,0,1.9234-.5835l-1.51,10.7633c-.1458.5973-1.906,2.3017-4.42,2.7358A53.7792,53.7792,0,0,1,161.5422,198.852Zm-17.78-57.5614a2.9853,2.9853,0,0,0-.5589-.0138,3.1669,3.1669,0,0,0-.9827.3921c-.02-.1042-.0554-.2012-.0728-.3054a19.9921,19.9921,0,0,1,1.8921-13.7977,3.2877,3.2877,0,0,0,1.5241-1.2394c4.34-7.17,13.3846-12.0129,23.2274-11.9919,9.85-.021,18.891,4.8224,23.217,11.9919a3.3271,3.3271,0,0,0,1.521,1.2085,20.0662,20.0662,0,0,1,1.9095,13.8286c-.0174.1006-.0522.2012-.0729.3054a2.3079,2.3079,0,0,0-1.795-.368c.3125-4.2844.2012-10.7838-4.9131-15.36-4.76-4.67-12.3738-7.01-19.9877-7.01-7.6108,0-15.2212,2.34-19.9814,7.01C143.5713,130.5135,143.4568,137.01,143.7622,141.2906Zm4.8085,1.3852c-.3367-3.5724-.9059-9.5549,3.2325-13.2452.0558-.0487.1113-.101.1632-.1529,3.6143-3.5485,9.8605-5.67,16.7038-5.67,6.8464,0,13.0962,2.1211,16.71,5.6731.0519.0484.1074.1007.16.1494,3.8191,3.4127,3.6662,8.6347,3.2218,13.2558-.0416.4476-.08.854-.1074,1.2117l-1.288,11.086c-.3716,3.2009-.7431,6.4266-1.1217,9.6448l-.8124,1.49a5.1508,5.1508,0,0,1-2.8887,2.18c-1.4061.3957-5.8015,1.3436-9.0617,2.0344a8.9217,8.9217,0,0,0-5.2081-1.8435c-2.9477-.2293-5.0378,1.441-4.6489,3.7288.3751,2.2846,2.9441,3.4789,5.7219,2.6665a8,8,0,0,0,4.3954-2.7323c3.3089-.7014,7.951-1.7047,9.4716-2.1178a6.9643,6.9643,0,0,0,4.0239-3.0626l4.7392-8.645-3.4337,9.2491a7.32,7.32,0,0,1-3.017,3.2812c-.2293,1.9963-.4619,3.9581-.6912,5.9615-.1525.9961-2.5726,3.7774-5.8225,4.5063a63.3137,63.3137,0,0,1-20.6892,0c-3.2428-.7257-5.6558-3.4963-5.819-4.6073l-1.3332-11.4644-2.4929-21.3558C148.6507,143.54,148.6127,143.1308,148.5707,142.6758Z" transform="translate(-33.6686 -15.0799)"/><path class="cls-5" d="M220.4091,203.4455a130.4472,130.4472,0,0,0-35.1119-9.2182l1.7534-12.426a8.2713,8.2713,0,0,0,2.4443-4.5447c.3228-2.8436.66-5.6835.9859-8.5238a2.4448,2.4448,0,0,0,4.25-1.4129l.3057-2.9651a12.9326,12.9326,0,0,0,3.3019-5.1107,2.3643,2.3643,0,0,0,1.1109.5486,2.4508,2.4508,0,0,0,2.8507-1.9963l.7082-3.9755a2.4592,2.4592,0,0,0-3.8124-2.4546,12.02,12.02,0,0,0-1.1664-4.0068,28.3685,28.3685,0,0,0,1.7047-5.1072,22.7142,22.7142,0,0,0-1.8054-16.1481,2.3883,2.3883,0,0,0-.1944-2.045c-5.104-8.9714-16.4745-15.2382-28.9425-15.1863-12.4641-.0519-23.8314,6.2149-28.9457,15.1863a2.3718,2.3718,0,0,0-.1909,2.0383,22.6978,22.6978,0,0,0-1.8157,16.1548,29.4355,29.4355,0,0,0,1.7151,5.1072,12.1044,12.1044,0,0,0-1.1665,4.0068,2.4616,2.4616,0,0,0-3.8159,2.4546l.7086,3.9755a2.4521,2.4521,0,0,0,2.8467,1.9963,2.36,2.36,0,0,0,1.1181-.5522,12.814,12.814,0,0,0,3.0277,4.795l.3367,3.2844a2.4479,2.4479,0,0,0,4.2567,1.41q.4944,4.2653.993,8.527a8.214,8.214,0,0,0,2.4475,4.5656l1.736,12.4051a130.5557,130.5557,0,0,0-35.1222,9.2182c-3.8017,1.7709-6.482,6.3643-6.0725,9.93q.6768,6.135,1.3784,12.2664c.4131,3.5656,3.8575,7.086,7.6556,7.7423a343.7617,343.7617,0,0,0,97.5655,0c3.8123-.6563,7.246-4.1767,7.6694-7.7423q.7034-6.135,1.3784-12.2664C226.8879,209.81,224.2282,205.2164,220.4091,203.4455Zm-58.8669-4.5935c-2.6039-.4547-4.3712-2.1594-4.5206-2.8019l-1.5206-10.7142a13.59,13.59,0,0,0,1.9409.5867,68.1964,68.1964,0,0,0,22.453,0,12.9154,12.9154,0,0,0,1.9234-.5835l-1.51,10.7633c-.1458.5973-1.906,2.3017-4.42,2.7358A53.7792,53.7792,0,0,1,161.5422,198.852Zm-17.78-57.5614a2.9853,2.9853,0,0,0-.5589-.0138,3.1669,3.1669,0,0,0-.9827.3921c-.02-.1042-.0554-.2012-.0728-.3054a19.9921,19.9921,0,0,1,1.8921-13.7977,3.2877,3.2877,0,0,0,1.5241-1.2394c4.34-7.17,13.3846-12.0129,23.2274-11.9919,9.85-.021,18.891,4.8224,23.217,11.9919a3.3271,3.3271,0,0,0,1.521,1.2085,20.0662,20.0662,0,0,1,1.9095,13.8286c-.0174.1006-.0522.2012-.0729.3054a2.3079,2.3079,0,0,0-1.795-.368c.3125-4.2844.2012-10.7838-4.9131-15.36-4.76-4.67-12.3738-7.01-19.9877-7.01-7.6108,0-15.2212,2.34-19.9814,7.01C143.5713,130.5135,143.4568,137.01,143.7622,141.2906Zm4.8085,1.3852c-.3367-3.5724-.9059-9.5549,3.2325-13.2452.0558-.0487.1113-.101.1632-.1529,3.6143-3.5485,9.8605-5.67,16.7038-5.67,6.8464,0,13.0962,2.1211,16.71,5.6731.0519.0484.1074.1007.16.1494,3.8191,3.4127,3.6662,8.6347,3.2218,13.2558-.0416.4476-.08.854-.1074,1.2117l-1.288,11.086c-.3716,3.2009-.7431,6.4266-1.1217,9.6448l-.8124,1.49a5.1508,5.1508,0,0,1-2.8887,2.18c-1.4061.3957-5.8015,1.3436-9.0617,2.0344a8.9217,8.9217,0,0,0-5.2081-1.8435c-2.9477-.2293-5.0378,1.441-4.6489,3.7288.3751,2.2846,2.9441,3.4789,5.7219,2.6665a8,8,0,0,0,4.3954-2.7323c3.3089-.7014,7.951-1.7047,9.4716-2.1178a6.9643,6.9643,0,0,0,4.0239-3.0626l4.7392-8.645-3.4337,9.2491a7.32,7.32,0,0,1-3.017,3.2812c-.2293,1.9963-.4619,3.9581-.6912,5.9615-.1525.9961-2.5726,3.7774-5.8225,4.5063a63.3137,63.3137,0,0,1-20.6892,0c-3.2428-.7257-5.6558-3.4963-5.819-4.6073l-1.3332-11.4644-2.4929-21.3558C148.6507,143.54,148.6127,143.1308,148.5707,142.6758Z" transform="translate(-33.6686 -15.0799)"/></svg>