<svg id="Layer_1" data-name="Layer 1" xmlns="http://www.w3.org/2000/svg" viewBox="0 0 224.917 223.0916"><defs><style>.cls-1{fill:#bf2629;}</style></defs><path class="cls-1" d="M160.2527,99.9672c-7.917,5.1487-20.5486,8.0675-37.1819,8.0675s-29.265-2.9188-37.1819-8.0675v12.7153c0,9.631,18.6727,13.9432,37.1819,13.9432s37.1819-4.3122,37.1819-13.9432Z" transform="translate(-11.525 -15.0799)"/><path class="cls-1" d="M85.8889,127.8536v12.7153c0,9.6311,18.6727,13.9432,37.1819,13.9432s37.1819-4.3121,37.1819-13.9432V127.8536c-7.917,5.1488-20.5486,8.0676-37.1819,8.0676S93.8058,133.0024,85.8889,127.8536Z" transform="translate(-11.525 -15.0799)"/><ellipse class="cls-1" cx="111.5458" cy="69.7161" rx="37.1819" ry="13.9432"/><path class="cls-1" d="M160.2527,155.74c-7.917,5.1487-20.5486,8.0675-37.1819,8.0675s-29.265-2.9188-37.1819-8.0675v12.7153c0,13.5528,33.3781,13.9432,37.1819,13.9432s37.1819-.39,37.1819-13.9432Z" transform="translate(-11.525 -15.0799)"/><path class="cls-1" d="M67.4605,42.16a4.3471,4.3471,0,0,0-.1626.806V103.387a4.6478,4.6478,0,0,0,9.2955,0V42.9664a4.3472,4.3472,0,0,0-.1627-.806,13.9434,13.9434,0,1,0-8.97,0Z" transform="translate(-11.525 -15.0799)"/><path class="cls-1" d="M25.4682,98.7392a13.9213,13.9213,0,0,0,13.0871-9.2954H48.7069V121.978a4.6447,4.6447,0,0,0,4.6478,4.6477H71.9456a4.6478,4.6478,0,1,0,0-9.2955H58.0024V84.796a4.6447,4.6447,0,0,0-4.6477-4.6477H38.5553A13.9189,13.9189,0,1,0,25.4682,98.7392Z" transform="translate(-11.525 -15.0799)"/><path class="cls-1" d="M76.5934,211.1411V159.16a4.6478,4.6478,0,1,0-9.2955,0v51.9812a13.9434,13.9434,0,1,0,9.2955,0Z" transform="translate(-11.525 -15.0799)"/><path class="cls-1" d="M58.0024,145.2167H71.9456a4.6478,4.6478,0,1,0,0-9.2955H53.3547a4.6447,4.6447,0,0,0-4.6478,4.6477v23.2387H38.5553a13.9434,13.9434,0,1,0,0,9.2955H53.3547a4.6447,4.6447,0,0,0,4.6477-4.6477Z" transform="translate(-11.525 -15.0799)"/><path class="cls-1" d="M179.1334,42.16a4.2583,4.2583,0,0,1,.1666.806V103.387a4.7632,4.7632,0,0,1-9.5236,0V42.9664a4.2584,4.2584,0,0,1,.1667-.806,13.9509,13.9509,0,0,1-9.69-13.1373,14.29,14.29,0,0,1,28.571,0A13.9508,13.9508,0,0,1,179.1334,42.16Z" transform="translate(-11.525 -15.0799)"/><path class="cls-1" d="M222.1565,98.7392a14.2429,14.2429,0,0,1-13.4083-9.2954H198.3473V121.978a4.7027,4.7027,0,0,1-4.7618,4.6477H174.5382a4.6491,4.6491,0,1,1,0-9.2955h14.2855V84.796a4.7027,4.7027,0,0,1,4.7618-4.6477h15.1627a14.1967,14.1967,0,1,1,13.4083,18.5909Z" transform="translate(-11.525 -15.0799)"/><path class="cls-1" d="M169.7764,211.1411V159.16a4.7632,4.7632,0,0,1,9.5236,0v51.9812a13.95,13.95,0,0,1,9.5237,13.0871,14.29,14.29,0,0,1-28.571,0A13.95,13.95,0,0,1,169.7764,211.1411Z" transform="translate(-11.525 -15.0799)"/><path class="cls-1" d="M188.8237,145.2167H174.5382a4.6491,4.6491,0,1,1,0-9.2955h19.0473a4.7026,4.7026,0,0,1,4.7618,4.6477v23.2387h10.4009a13.9457,13.9457,0,1,1,0,9.2955H193.5855a4.7027,4.7027,0,0,1-4.7618-4.6477Z" transform="translate(-11.525 -15.0799)"/></svg>