<svg id="Layer_1" data-name="Layer 1" xmlns="http://www.w3.org/2000/svg" viewBox="0 0 461.0633 404.7255"><defs><style>.cls-1{fill:#fff;}</style></defs><path class="cls-1" d="M331.0623,309.5449c-28.3783,42.969-79.721,77.0849-79.721,77.0849S192.6,347.5962,166.052,300.4465c-26.5449-47.15-15.8166-154.1239-15.8166-154.1239s.565,4.5613,35.5872,2.5365c35.0174-2.0291,59.8719-26.8721,65.5187-26.8721,5.6489,0,30.4989,24.843,65.521,26.8721,35.02,2.0248,35.5867-2.5365,35.5867-2.5365s1.5083,15.0391,1.9945,36.3249a47.1963,47.1963,0,0,0-8.1385-.9438,28.3429,28.3429,0,0,0-6.1023.5942c-.549-12.9378-1.398-21.4026-1.398-21.4026s-.49,3.9457-30.7843,2.1941c-30.2959-1.7552-51.7924-23.2457-56.679-23.2457-4.8848,0-26.3851,21.49-56.677,23.2457-30.2959,1.7516-30.7847-2.1941-30.7847-2.1941s-9.2806,92.5381,13.6821,133.3249c22.965,40.7869,73.78,74.5529,73.78,74.5529s43.4575-28.8763,68.1584-65.4777a49.5055,49.5055,0,0,0,5.7559,3.4034C328.9216,308.5908,331.0623,309.5449,331.0623,309.5449Z" transform="translate(-19.4684 -54.2605)"/><path class="cls-1" d="M311.458,295.8444c-21.37,32.4116-60.1165,58.1577-60.1165,58.1577s-44.2573-29.4087-64.2588-64.9323c-19.9995-35.5235-11.9165-116.12-11.9165-116.12s.4257,3.4366,26.8121,1.911c26.3829-1.5287,45.1088-20.2459,49.3632-20.2459,4.256,0,22.9785,18.7172,49.3649,20.2459,26.3847,1.5256,26.8118-1.911,26.8118-1.911s.5044,5.029.9494,13.1282a55.012,55.012,0,0,0-7.1143,5.3228,31.8,31.8,0,0,0-9.2239,12.89,41.4461,41.4461,0,0,0-2.72,16.5557c.1182,5.0849.1182,16.6739.1182,16.6739s-4.8484,6.3857-6.504,12.18-3.4294,12.535-2.3651,21.2858a47.3418,47.3418,0,0,0,6.6223,18.566A72.5028,72.5028,0,0,0,311.458,295.8444Zm-18.5366-35.0708a97.4922,97.4922,0,0,0-30.4378-8.7335c.355-2.4877.71-4.9856,1.062-7.4748,2.3311-1.4939,4.011-3.6933,4.1591-5.527q.4125-3.4676.81-6.9351a2.0557,2.0557,0,0,0,1.254.633,2.0188,2.0188,0,0,0,2.2127-1.8013l1.1062-10.6783a2.0167,2.0167,0,0,0-2.9669-1.9716c.24-2.0306.4764-4.0539.7012-6.0933.1951-2.7822,1.57-10.2064-3.7923-14.994-7.7587-7.6139-24.8263-7.6139-32.585,0-5.36,4.7876-3.9843,12.2118-3.798,14.994.2366,2.0394.4761,4.0627.7069,6.0933a1.9744,1.9744,0,0,0-1.1713-.232,2.01,2.01,0,0,0-1.7925,2.2036l1.1062,10.6783a2.007,2.007,0,0,0,2.2039,1.8013,2.0481,2.0481,0,0,0,1.257-.633q.3993,3.4721.81,6.9351c.16,1.8337,1.8338,4.0331,4.1649,5.527q.5279,3.7338,1.05,7.4748a97.5272,97.5272,0,0,0-30.4287,8.7335,10.1521,10.1521,0,0,0-4.9518,9.1253q.5412,5.6257,1.1211,11.25a8.4792,8.4792,0,0,0,6.2472,7.1051,249.5808,249.5808,0,0,0,79.54,0,8.4806,8.4806,0,0,0,6.2412-7.1051q.5811-5.6216,1.121-11.25A10.174,10.174,0,0,0,292.9214,260.7736Z" transform="translate(-19.4684 -54.2605)"/><path class="cls-1" d="M328.5915,223.9622c.33-6.573,1.0055-12.7812,2.3762-15.0134a17.6086,17.6086,0,0,1,14.8329-8.6191c.2184-.0054.4343-.0061.6489-.0037a17.5186,17.5186,0,0,1,14.973,8.4529c1.486,2.3989,2.1981,8.5435,2.51,15.18a45.2492,45.2492,0,0,1,13.2624,8.3922c.094-7.1348.18-15.5552.0707-17.245-.9133-14.1767-13.1388-26.2089-27.833-27.3917-.9212-.0741-1.8432-.1162-2.7407-.1252a31.1373,31.1373,0,0,0-21.0161,7.4393,29.5154,29.5154,0,0,0-10.3462,19.636c-.1258,1.557-.1245,10.4983-.1092,17.79A45.2435,45.2435,0,0,1,328.5915,223.9622Z" transform="translate(-19.4684 -54.2605)"/><path class="cls-1" d="M387.7076,268.9187a40.8985,40.8985,0,0,1-81.2521,1.7713c-.0065-.0561-.013-.11-.0195-.1661-.069-.5222-.1326-1.0454-.1812-1.575-.0238-.2471-.0388-.4963-.0571-.7455-.0271-.3646-.0573-.7282-.0745-1.0972q-.0486-.9675-.05-1.9363,0-.9709.05-1.94c.0172-.368.0474-.7316.0755-1.0972.0183-.2492.0323-.5.0561-.7486.05-.534.1143-1.0616.1833-1.588.0066-.0518.013-.1036.0195-.1532a40.898,40.898,0,0,1,81.25,1.7713c.02.21.0324.42.0485.63.03.397.0637.795.0831,1.1953.03.643.0486,1.2848.0486,1.93s-.0184,1.287-.0486,1.9277c-.0194.4079-.0539.8135-.0841,1.2169C387.7389,268.5163,387.7271,268.718,387.7076,268.9187Zm-7.0035,12.1968c.0572-.122.11-.2461.1661-.369H369.5494c-2.027,8.2128-5.6032,15.0836-10.1168,19.5886.0582-.0195.1165-.0388.1747-.0593.247-.0895.4908-.1866.7358-.2794.3139-.1219.6279-.2417.9385-.3712.2449-.1024.4855-.21.7282-.3192.3031-.1327.6051-.2665.9041-.4089.2427-.1143.4822-.2363.7217-.356.2911-.1456.5813-.2923.8694-.4455.2373-.1274.4725-.26.71-.3927.2805-.1585.56-.3172.836-.4822.2341-.14.465-.2837.6959-.4294.27-.1682.5383-.3387.8025-.5157.2288-.15.4554-.3063.68-.4638.26-.18.5178-.3625.7724-.5492q.3335-.2442.66-.4983c.2481-.191.4951-.383.7378-.5794q.3237-.2622.6408-.5318c.2384-.2006.4747-.4034.7056-.6105.2092-.1856.4142-.3733.6192-.5632.2265-.2114.4509-.424.6709-.6408.2008-.1963.3993-.3927.5956-.5933q.3219-.33.6386-.6689c.19-.2072.38-.4121.5675-.6235.2049-.2287.4056-.4618.6041-.697.1812-.2135.3625-.4314.54-.65.1931-.2385.3819-.479.5686-.7228.1725-.2245.3452-.4488.5134-.6775.1813-.2471.3582-.5.5341-.7508.1618-.2309.3225-.4629.48-.6991.1705-.2578.3344-.5188.5006-.78.1489-.24.301-.4779.4455-.7206.1586-.2654.3118-.5362.4629-.8047.14-.2471.2782-.4919.4131-.7423.1456-.274.2859-.5523.4261-.8307C380.4538,281.6246,380.5822,281.3722,380.7041,281.1155Zm-21.0968-51.05c-.0582-.0215-.1165-.04-.1747-.0593,4.5115,4.5029,8.0888,11.3705,10.1146,19.5789h11.3187c-.0539-.1208-.1057-.2416-.1618-.36-.1219-.2567-.25-.5091-.3776-.7615-.14-.2773-.2805-.5567-.4261-.8307-.1349-.2491-.273-.494-.4131-.7412-.1511-.2685-.3043-.5393-.4629-.8047-.1445-.2427-.2966-.4822-.4455-.7217-.1662-.261-.33-.5222-.5006-.78-.1575-.2363-.3182-.4672-.48-.6981-.1759-.2524-.3528-.5037-.5341-.7508-.1682-.2287-.3409-.453-.5134-.6775-.1867-.2438-.3755-.4854-.5686-.7228-.1779-.22-.3592-.4379-.54-.6515q-.2978-.3528-.6041-.697c-.1877-.2114-.3776-.4163-.5675-.6235q-.3173-.3381-.6386-.6688c-.1963-.2006-.3948-.3971-.5956-.5934-.22-.2157-.4444-.4293-.6709-.6408-.205-.1888-.41-.3776-.6192-.562-.2309-.2072-.4672-.411-.7056-.6117-.2114-.1791-.425-.3581-.6408-.5307-.2427-.1964-.49-.3905-.7378-.58q-.327-.2525-.66-.4984c-.2546-.1877-.5124-.3679-.7724-.5481-.2243-.1575-.4509-.3139-.68-.4638-.2642-.177-.5329-.3474-.8025-.5157-.2309-.1467-.4618-.2891-.6959-.4294-.2761-.165-.5555-.3235-.836-.4822-.2374-.1326-.4726-.2664-.71-.3927-.2881-.1542-.5783-.3009-.8694-.4455-.24-.1208-.479-.2416-.7217-.356-.299-.1424-.601-.2762-.9041-.41-.2427-.1078-.4833-.2178-.7282-.3181-.3106-.1306-.6246-.2492-.9385-.3712C360.0981,230.2506,359.8543,230.1535,359.6073,230.065Zm7.0811,23.1163h-17.911V277.152h17.911a65.3774,65.3774,0,0,0,0-23.9707Zm-17.911,27.5652v21.5844c7.6044-1.1727,14.0491-9.6973,17.1106-21.5844Zm17.1085-31.1619c-3.0616-11.8817-9.5063-20.4042-17.1085-21.5757v21.5757ZM384.2911,265.17c0-.5685-.0184-1.1328-.0431-1.6948-.0131-.2805-.0335-.56-.0529-.8393-.0162-.2438-.0345-.4876-.0551-.7293-.0377-.412-.0787-.8231-.1294-1.233-.0032-.0313-.0075-.0615-.0118-.0917a37.3035,37.3035,0,0,0-1.7261-7.4H370.3218a67.5859,67.5859,0,0,1,0,23.9707h11.9509a37.3931,37.3931,0,0,0,1.7293-7.4188l.0065-.0507c.0528-.4186.0938-.8383.1327-1.2557q.0291-.3561.0539-.7131c.0194-.2838.0388-.5664.0529-.85C384.2727,266.3015,384.2911,265.7373,384.2911,265.17ZM311.6756,277.152h11.9531a67.5146,67.5146,0,0,1,.0021-23.9707H311.6833a37.3018,37.3018,0,0,0-1.7089,7.312c-.0108.0788-.0215.1575-.03.2374-.0475.3786-.0853.76-.1209,1.1391-.0226.2676-.0432.5373-.06.807-.0183.2611-.0367.5243-.05.7885-.026.5664-.0432,1.1339-.0432,1.7046s.0172,1.1381.0432,1.7034c.0129.2643.0324.5275.05.7929s.0378.5318.06.7962c.0345.3807.0723.76.1187,1.14.01.08.0205.1586.03.2374A37.6792,37.6792,0,0,0,311.6756,277.152Zm15.5875,0h17.9187V253.1813H327.2642a65.2876,65.2876,0,0,0-.0011,23.9707Zm.8027-27.5674h17.116V228.0089C337.5753,229.18,331.1284,237.7018,328.0658,249.5846Zm-.0022,31.1619c3.0616,11.8882,9.51,20.4128,17.1182,21.5844V280.7465Zm-14.9693-31.1619h11.31c2.0271-8.2063,5.6033-15.0739,10.1148-19.5757A37.495,37.495,0,0,0,313.0943,249.5846Zm21.4248,50.7473c-4.5137-4.504-8.091-11.3737-10.117-19.5854H313.09A37.4985,37.4985,0,0,0,334.5191,300.3319Z" transform="translate(-19.4684 -54.2605)"/><path class="cls-1" d="M353.6616,257.1278a5.4331,5.4331,0,0,1-.9854,1.7893,9.702,9.702,0,0,0-1.6856,3.3022,25.8589,25.8589,0,0,0-.1737,7.6821c.18,2.5378.3851,5.4139-.2075,7.0522-.6278,1.7355-2.5808,2.5124-4.2382,2.5124h-.0006a4.108,4.108,0,0,1-4.0039-2.5124c-.7179-1.9851-.5015-4.4606-.2726-7.0818a24.6641,24.6641,0,0,0-.0893-7.3312,11.348,11.348,0,0,0-1.9855-4.0846,8.27,8.27,0,0,1-.7213-1.1644,7.4124,7.4124,0,0,1,1.0253-6.003,7.1972,7.1972,0,0,1,4.8233-2.9374,9.3773,9.3773,0,0,1,1.5147-.1262,7.1906,7.1906,0,0,1,5.6134,2.45A7.3784,7.3784,0,0,1,353.6616,257.1278Z" transform="translate(-19.4684 -54.2605)"/><path class="cls-1" d="M114.7118,402.77c-11.883.5292-22.92,3.1282-35.0111,2.779l.0324.0324h0c.3527.3528.8459.6335,1.1951.9863A73.1442,73.1442,0,0,0,114.01,426.499c15.0792,4.0425,27.7,1.44,35.68-5.5184C141.6408,409.8719,131.0217,402.0678,114.7118,402.77Z" transform="translate(-19.4684 -54.2605)"/><path class="cls-1" d="M113.6567,393.0325c-4.9564-11.1771-13.0777-19.5791-28.0849-20.67-10.9683-.81-21.5155.4212-32.4838-1.2671a58.8849,58.8849,0,0,0,26.8935,23.1677C92.8468,399.6416,104.9058,398.6229,113.6567,393.0325Z" transform="translate(-19.4684 -54.2605)"/><path class="cls-1" d="M86.0974,363.1513c-2.25-10.9683-7.9806-19.6834-21.4435-22.3217-9.8092-1.9334-19.6508-1.9334-29.2476-4.7085a47.4512,47.4512,0,0,0,19.7552,24.4636C65.777,366.985,76.9937,367.37,86.0974,363.1513Z" transform="translate(-19.4684 -54.2605)"/><path class="cls-1" d="M64.5135,331.7943c.14-10.5112-3.3765-19.334-15.0108-23.3405-8.4737-2.8834-17.365-4.0067-25.45-7.7a39.9245,39.9245,0,0,0,12.9338,25.1728C45.32,333.1334,55.41,334.75,64.5135,331.7943Z" transform="translate(-19.4684 -54.2605)"/><path class="cls-1" d="M49.7151,299.1018c2.25-9.9136.8063-18.6648-8.8589-23.7617-6.9978-3.6933-14.73-5.7667-21.1986-10.1944-.842,8.8589,1.0907,18.2431,6.5046,25.2736A23.1222,23.1222,0,0,0,49.7151,299.1018Z" transform="translate(-19.4684 -54.2605)"/><path class="cls-1" d="M41.839,266.2c4.0064-9.1756,4.4636-17.7177-3.0922-23.6608-5.45-4.3233-11.8826-7.2031-16.663-12.1958-2.6026,8.4017-2.8474,17.5773.5255,24.8523C26.371,263.2811,33.6136,266.8661,41.839,266.2Z" transform="translate(-19.4684 -54.2605)"/><path class="cls-1" d="M40.5755,233.1911c5.4823-8.3336,7.6277-16.5226,2.25-23.0957-3.9025-4.8164-8.8953-8.3333-11.991-13.6756a.1185.1185,0,0,1-.032.072v-.036a44.8566,44.8566,0,0,0-2.1819,5.8714c-2.3178,6.1843-3.7617,12.5126-2.7069,18.1027C27.4617,228.62,33.1205,232.91,40.5755,233.1911Z" transform="translate(-19.4684 -54.2605)"/><path class="cls-1" d="M45.7055,200.567C52.35,193.08,56.04,185.3834,52.8793,178.3493c-2.3219-5.1293-5.8388-9.1034-7.2427-14.7261-5.4139,7.1706-9.388,15.4821-9.8452,22.8473C35.2663,194.5915,39.2724,199.4076,45.7055,200.567Z" transform="translate(-19.4684 -54.2605)"/><path class="cls-1" d="M68.8728,147.2949c-.702-5.2916-2.707-9.6508-2.4262-15.3458-6.5047,6.4689-12.0591,14.2188-14.3089,21.39-2.4946,7.9266-.2088,13.0955,5.0972,14.9424C64.7583,161.7405,69.8555,154.57,68.8728,147.2949Z" transform="translate(-19.4684 -54.2605)"/><path class="cls-1" d="M89.9994,118.1157c.8424-5.342.3528-9.8776,2.25-15.5543-7.3834,5.7631-14.2733,12.8473-18.1754,19.7371-4.2508,7.5954-3.69,12.9734.3888,15.3816C82.6524,132.0358,88.8763,125.4807,89.9994,118.1157Z" transform="translate(-19.4684 -54.2605)"/><path class="cls-1" d="M161.396,413.3529c10.5472-5.2052,14.5536-13.2542,11.6019-22.6386-2.6746-8.51-9.95-16.4183-18.5277-23.1317-3.9021,7.3467-10.6515,13.7077-14.3052,21.267C135.2082,399.22,145.2621,408.0433,161.396,413.3529Z" transform="translate(-19.4684 -54.2605)"/><path class="cls-1" d="M110.2482,361.64c-5.6952,9.6328,2.39,18.632,16.4178,24.6436,10.1224-4.2873,14.7265-11.67,13.1462-20.81-1.44-8.2973-7.1378-16.3462-14.1685-23.34C121.2845,348.9505,114.4306,354.6092,110.2482,361.64Z" transform="translate(-19.4684 -54.2605)"/><path class="cls-1" d="M99.6323,357.5646a19.1966,19.1966,0,0,0,12.5485-13.15,16.6687,16.6687,0,0,0,.67-2.25c.2088-1.2994,1.1591-2.2822,1.0871-3.7256-.3492-8.049-4.568-16.1339-10.0864-23.3046-4.748,6.2923-11.6014,11.3895-16.2059,17.8906C81.3853,341.9887,87.6452,351.0239,99.6323,357.5646Z" transform="translate(-19.4684 -54.2605)"/><path class="cls-1" d="M78.9951,327.19c9.1757-2.8474,14.5212-9.0353,15.2592-17.5774.6659-7.7322-2.1454-15.7811-6.26-23.06-5.0612,5.8708-11.879,10.4065-16.803,16.418C64.4415,311.2652,68.9771,320.2644,78.9951,327.19Z" transform="translate(-19.4684 -54.2605)"/><path class="cls-1" d="M80.8238,279.4869c1.6162-7.4153.1764-15.3959-2.5306-22.6385-5.342,5.414-12.0914,9.4924-17.329,15.0468-7.2066,7.6637-4.2909,16.5226,3.83,23.7292C73.4084,293.3746,79.0311,287.7123,80.8238,279.4869Z" transform="translate(-19.4684 -54.2605)"/><path class="cls-1" d="M57.1665,263.8784A21.86,21.86,0,0,0,73.7936,249.08c2.5305-7.1022,2.3542-14.9064,1.0187-22.077-5.5868,5.0288-12.2678,8.6465-17.7862,13.8157C49.4667,247.8851,50.8742,256.5676,57.1665,263.8784Z" transform="translate(-19.4684 -54.2605)"/><path class="cls-1" d="M55.795,232.1c7.4874-1.3715,13.4629-6.08,17.1562-13.5673,3.2686-6.6091,4.3237-13.992,4.36-20.8459,0-.1764.032-.3168.032-.4932h0v-.0359c-5.8352,4.64-12.4082,7.8761-18.1714,12.6565C51.227,216.3517,51.191,224.7534,55.795,232.1Z" transform="translate(-19.4684 -54.2605)"/><path class="cls-1" d="M60.435,200.639c6.9943-1.0187,13.1138-5.3456,17.6818-12.4442a54.3679,54.3679,0,0,0,7.2066-18.9129c.1044-.5291.3168-1.0727.4212-1.5839v-.0143h0v-.018h0v-.036c-6.08,4.2872-12.5486,7.2066-18.56,11.6342C58.9232,185.3114,57.5193,193.3961,60.435,200.639Z" transform="translate(-19.4684 -54.2605)"/><path class="cls-1" d="M71.1226,169.5267c6.5046-.72,12.7609-4.6763,18.1753-11.3895a70.5262,70.5262,0,0,0,10.8275-19.6328c-6.3639,3.9558-12.761,6.5911-19.0208,10.6513C72.4941,154.7463,69.7515,162.4605,71.1226,169.5267Z" transform="translate(-19.4684 -54.2605)"/><path class="cls-1" d="M119.7042,110.9091c-6.609,3.6753-13.0057,6.0475-19.51,9.7729-8.9633,5.1515-12.8653,12.48-12.9373,19.3163,6.0115-.5076,12.4117-4.1289,18.668-10.4571A90.2933,90.2933,0,0,0,119.7042,110.9091Z" transform="translate(-19.4684 -54.2605)"/><path class="cls-1" d="M215.2877,446.6753C52.4221,370.7107,4.0132,245.6713,95.4818,115.3544c.108,1.0226-.4212,2.3039.108,3.1318,9.6328-3.5347,17.75-8.5958,21.9006-16.0832,3.0238-5.468,4.64-10.5112,8.7869-16.1519-8.5417,4.0425-17.469,9.6112-23.9381,15.8171-5.5179,5.2916-7.1378,9.65-6.8574,13.2181C2.1522,246.2689,49.7151,372.1182,211.8063,450.0879,241.1583,464.22,244.6032,460.35,215.2877,446.6753Z" transform="translate(-19.4684 -54.2605)"/><path class="cls-1" d="M385.395,402.77c-16.3139-.7019-26.9294,7.1022-34.9784,18.2109,7.9806,6.9583,20.5976,9.5609,35.68,5.5184a73.1151,73.1151,0,0,0,33.0782-19.9316c.3523-.3528.8455-.6335,1.1946-.9863h0l.036-.0324C408.3143,405.8979,397.274,403.2989,385.395,402.77Z" transform="translate(-19.4684 -54.2605)"/><path class="cls-1" d="M386.45,393.0325c8.7513,5.59,20.8463,6.6091,33.6753,1.2311a58.9034,58.9034,0,0,0,26.8934-23.1677c-10.9683,1.6883-21.5155.4572-32.4838,1.2671C399.5238,373.4534,391.4029,381.8554,386.45,393.0325Z" transform="translate(-19.4684 -54.2605)"/><path class="cls-1" d="M414.0091,363.1513c9.1036,4.2186,20.3167,3.8337,30.9358-2.5666A47.4507,47.4507,0,0,0,464.7,336.1211c-9.5968,2.7751-19.442,2.7751-29.2476,4.7085C422.022,343.4679,416.2593,352.183,414.0091,363.1513Z" transform="translate(-19.4684 -54.2605)"/><path class="cls-1" d="M450.6037,308.4538c-11.6379,4.0065-15.1512,12.8293-14.9748,23.3405,9.1041,2.9554,19.1576,1.3391,27.4874-5.8675,6.7854-5.8712,10.5471-14.1685,12.1274-22.4658.1764-.9143.7055-1.7567.81-2.671h0v-.036C467.9687,304.4471,459.11,305.57,450.6037,308.4538Z" transform="translate(-19.4684 -54.2605)"/><path class="cls-1" d="M480.4488,265.1817v-.036c-6.4686,4.4277-14.2044,6.5011-21.1986,10.1944-9.6652,5.0969-11.1087,13.8481-8.8589,23.7617a23.1008,23.1008,0,0,0,23.5529-8.6825c5.238-6.8179,7.1022-15.8531,6.4687-24.5-.036-.2484.0719-.4935.0359-.738Z" transform="translate(-19.4684 -54.2605)"/><path class="cls-1" d="M458.2679,266.2c8.2249.6657,15.5-2.9193,19.2256-11.0043,3.3765-7.275,3.1646-16.4506.5651-24.8523-4.8159,4.9927-11.249,7.8725-16.699,12.1958C453.8,248.4827,454.2574,257.0248,458.2679,266.2Z" transform="translate(-19.4684 -54.2605)"/><path class="cls-1" d="M457.2811,210.0954c-5.3779,6.5731-3.1965,14.7621,2.25,23.0957,7.4549-.2808,13.1137-4.5716,14.6616-12.7612,1.0511-5.59-.3888-11.9184-2.707-18.1027a45.9883,45.9883,0,0,0-2.1814-5.8714v.036a.1115.1115,0,0,1-.036-.072C466.176,201.7621,461.1836,205.279,457.2811,210.0954Z" transform="translate(-19.4684 -54.2605)"/><path class="cls-1" d="M454.3978,200.567c6.4362-1.1594,10.4427-5.9755,9.9136-14.0965-.4572-7.3652-4.4277-15.6767-9.8416-22.8473-1.4075,5.6227-4.9208,9.5968-7.2426,14.7261C444.063,185.3834,447.7567,193.08,454.3978,200.567Z" transform="translate(-19.4684 -54.2605)"/><path class="cls-1" d="M442.8679,168.2812c5.31-1.8469,7.5954-7.0158,5.0972-14.9424-2.0374-6.4509-6.89-13.2865-12.5846-19.316-.5975-.67-1.0547-1.4075-1.6846-2.0377h0s-.036-.0177-.036-.036c.2807,5.695-1.7243,10.0542-2.4258,15.3458C430.2473,154.57,435.3481,161.7405,442.8679,168.2812Z" transform="translate(-19.4684 -54.2605)"/><path class="cls-1" d="M425.6433,137.68c4.0789-2.4082,4.676-7.7862.3888-15.3816-3.9021-6.89-10.7919-13.974-18.1749-19.7371,1.897,5.6767,1.4038,10.2123,2.25,15.5543C411.23,125.4807,417.454,132.0358,425.6433,137.68Z" transform="translate(-19.4684 -54.2605)"/><path class="cls-1" d="M338.71,413.3529c16.1339-5.31,26.1879-14.1325,21.2311-24.5033-3.6533-7.5593-10.4032-13.92-14.2725-21.267-8.5749,6.7134-15.8895,14.622-18.56,23.1317C324.1568,400.0987,328.1992,408.1477,338.71,413.3529Z" transform="translate(-19.4684 -54.2605)"/><path class="cls-1" d="M373.4764,386.2831c13.992-6.0116,22.077-15.0108,16.3822-24.6436-4.1828-7.03-11.04-12.689-15.4-19.5069-7.03,6.9943-12.725,15.0432-14.1649,23.34C358.71,374.6128,363.318,381.9958,373.4764,386.2831Z" transform="translate(-19.4684 -54.2605)"/><path class="cls-1" d="M396.2553,315.1672h0c-.3528.4572-.5616.9864-.8783,1.4759-5.0252,6.7855-8.8949,14.2729-9.2113,21.7963-.0688,1.4434.8816,2.4262,1.09,3.7256a16.6687,16.6687,0,0,0,.67,2.25,19.1965,19.1965,0,0,0,12.5486,13.15c11.987-6.5407,18.2793-15.5759,11.987-24.5392-4.568-6.5011-11.4615-11.5983-16.17-17.8906Z" transform="translate(-19.4684 -54.2605)"/><path class="cls-1" d="M428.9118,302.9712c-4.9208-6.0115-11.7386-10.5472-16.8034-16.418-4.1109,7.2786-6.9222,15.3275-6.2563,23.06.738,8.5421,6.1159,14.73,15.2556,17.5774C431.1293,320.2644,435.6617,311.2652,428.9118,302.9712Z" transform="translate(-19.4684 -54.2605)"/><path class="cls-1" d="M439.1422,271.8952c-5.2376-5.5544-11.987-9.6328-17.329-15.0468-2.671,7.2426-4.15,15.2232-2.53,22.6385,1.7922,8.2254,7.4153,13.8877,16.029,16.1375C443.4331,288.4178,446.3488,279.5589,439.1422,271.8952Z" transform="translate(-19.4684 -54.2605)"/><path class="cls-1" d="M443.08,240.8189c-5.5184-5.1692-12.1994-8.7869-17.7857-13.8157-1.34,7.1706-1.48,14.9748,1.0183,22.077a21.8546,21.8546,0,0,0,16.627,14.7982C449.2686,256.5676,450.64,247.8851,443.08,240.8189Z" transform="translate(-19.4684 -54.2605)"/><path class="cls-1" d="M422.76,197.1581v.0359h0c0,.1764.036.3168.036.4932.036,6.8539,1.0908,14.2368,4.3593,20.8459,3.6933,7.4874,9.6688,12.1958,17.1922,13.5673,4.568-7.347,4.532-15.7487-3.4125-22.2858C435.1717,205.0342,428.5987,201.7981,422.76,197.1581Z" transform="translate(-19.4684 -54.2605)"/><path class="cls-1" d="M432.9219,179.2639c-6.0115-4.4276-12.48-7.347-18.5637-11.6342v.036h0c.072.4391.2484.8783.3532,1.2994a55.2761,55.2761,0,0,0,7.2782,19.23c4.568,7.0986,10.6844,11.4255,17.6818,12.4442C442.5871,193.3961,441.1832,185.3114,432.9219,179.2639Z" transform="translate(-19.4684 -54.2605)"/><path class="cls-1" d="M419.0342,149.1557c-6.2922-4.06-12.6889-6.6955-19.0532-10.6513a70.5175,70.5175,0,0,0,10.8279,19.6328c5.4144,6.7132,11.7063,10.67,18.1749,11.3895C430.3553,162.4605,427.6124,154.7463,419.0342,149.1557Z" transform="translate(-19.4684 -54.2605)"/><path class="cls-1" d="M399.9126,120.682c-6.5047-3.7254-12.8653-6.0976-19.51-9.7729a90.2933,90.2933,0,0,0,13.78,18.6321c6.2563,6.3282,12.6565,9.95,18.6681,10.4571C412.778,133.1625,408.8759,125.8335,399.9126,120.682Z" transform="translate(-19.4684 -54.2605)"/><path class="cls-1" d="M404.621,115.2863c.2808-3.5853-1.3355-7.9265-6.8538-13.2181-6.4327-6.1882-15.3276-11.7423-23.87-15.7667v-.018h0l-.036-.018c4.1145,5.6263,5.7308,10.67,8.7545,16.1375,4.1469,7.4874,12.2678,12.5485,21.9006,16.0832.5616-.8279,0-2.1092.1044-3.1459,88.0241,125.4426,46.5082,245.95-101.9437,322.5839-33.5348,17.3292-32.095,21.7965.9143,4.5C453.3467,363.9973,495.0025,242.05,404.621,115.2863Z" transform="translate(-19.4684 -54.2605)"/><polygon class="cls-1" points="246.298 34.68 247.705 53.38 230.444 45.997 213.112 53.117 214.764 34.431 202.673 20.126 220.952 15.943 230.794 0 240.426 16.098 258.637 20.547 246.298 34.68"/><polygon class="cls-1" points="186.503 41.868 187.345 53.38 176.73 48.844 166.078 53.204 167.097 41.71 159.609 32.901 170.895 30.338 176.942 20.511 182.882 30.424 194.095 33.168 186.503 41.868"/><polygon class="cls-1" points="295.758 41.868 296.639 53.38 286.02 48.844 275.337 53.204 276.355 41.71 268.9 32.901 280.149 30.338 286.233 20.511 292.14 30.424 303.353 33.168 295.758 41.868"/><polygon class="cls-1" points="328.734 49.514 329.156 55.068 324.022 52.887 318.853 54.996 319.346 49.442 315.726 45.191 321.175 43.942 324.127 39.194 326.974 43.978 332.388 45.313 328.734 49.514"/><polygon class="cls-1" points="148.116 49.514 148.537 55.068 143.404 52.887 138.238 54.996 138.728 49.442 135.142 45.191 140.556 43.942 143.508 39.194 146.355 43.978 151.769 45.313 148.116 49.514"/></svg>