<svg id="Layer_12" data-name="Layer 12" xmlns="http://www.w3.org/2000/svg" viewBox="0 0 151.5559 222.0779"><defs><style>.cls-1{fill:#bf2026;}.cls-2,.cls-5{fill:none;stroke:#fff;stroke-width:10px;}.cls-3{fill:#bf2629;}.cls-4{fill:#fff;}.cls-5{stroke-miterlimit:10;}</style></defs><path class="cls-1" d="M143.5445,69.7592c-4.9626,3.2274-12.8805,5.057-23.3068,5.057s-18.3443-1.83-23.3069-5.057v7.97c0,6.037,11.7047,8.74,23.3069,8.74s23.3068-2.703,23.3068-8.74Z" transform="translate(-38.6023 -16.5491)"/><path class="cls-1" d="M96.9308,87.2393v7.97c0,6.0371,11.7047,8.74,23.3069,8.74s23.3068-2.703,23.3068-8.74v-7.97c-4.9626,3.2275-12.8805,5.057-23.3068,5.057S101.8934,90.4668,96.9308,87.2393Z" transform="translate(-38.6023 -16.5491)"/><ellipse class="cls-1" cx="81.6354" cy="43.7003" rx="23.3068" ry="8.7401"/><path class="cls-1" d="M143.5445,104.72c-4.9626,3.2274-12.8805,5.057-23.3068,5.057s-18.3443-1.83-23.3069-5.057v7.97c0,8.4954,20.9226,8.74,23.3069,8.74s23.3068-.2447,23.3068-8.74Z" transform="translate(-38.6023 -16.5491)"/><path class="cls-1" d="M149.4732,33.524a2.7237,2.7237,0,0,0-.1019.5052V71.9029a2.9134,2.9134,0,0,0,5.8267,0V34.0292a2.7321,2.7321,0,0,0-.102-.5052,8.74,8.74,0,1,0-5.6228,0Z" transform="translate(-38.6023 -16.5491)"/><path class="cls-1" d="M181.4182,103.95a8.7264,8.7264,0,0,0-8.2035,5.8267h-6.3633V95.21a2.9115,2.9115,0,0,0-2.9134-2.9134H152.2846a2.9134,2.9134,0,0,0,0,5.8268h8.74V112.69a2.9114,2.9114,0,0,0,2.9133,2.9134h9.2767a8.7248,8.7248,0,1,0,8.2035-11.6534Z" transform="translate(-38.6023 -16.5491)"/><path class="cls-1" d="M155.198,139.4467V106.8631a2.9134,2.9134,0,0,0-5.8267,0v32.5836a8.74,8.74,0,1,0,5.8267,0Z" transform="translate(-38.6023 -16.5491)"/><path class="cls-1" d="M85.3794,33.524a2.7239,2.7239,0,0,0-.102.5052V71.9029a2.9134,2.9134,0,0,0,5.8267,0V34.0292a2.7239,2.7239,0,0,0-.102-.5052,8.74,8.74,0,1,0-5.6227,0Z" transform="translate(-38.6023 -16.5491)"/><path class="cls-1" d="M59.0572,68.99a8.7263,8.7263,0,0,0,8.2034-5.8267H73.624V83.5563A2.9114,2.9114,0,0,0,76.5374,86.47H88.1908a2.9134,2.9134,0,0,0,0-5.8267h-8.74V60.2494a2.9114,2.9114,0,0,0-2.9133-2.9133H67.2606A8.7248,8.7248,0,1,0,59.0572,68.99Z" transform="translate(-38.6023 -16.5491)"/><path class="cls-1" d="M91.1041,139.4467V106.8631a2.9134,2.9134,0,0,0-5.8267,0v32.5836a8.74,8.74,0,1,0,5.8267,0Z" transform="translate(-38.6023 -16.5491)"/><path class="cls-1" d="M161.0247,80.6429h-8.74a2.9134,2.9134,0,0,0,0,5.8267H163.938a2.9114,2.9114,0,0,0,2.9134-2.9133V63.1628h6.3633a8.74,8.74,0,1,0,0-5.8267H163.938a2.9113,2.9113,0,0,0-2.9133,2.9133Z" transform="translate(-38.6023 -16.5491)"/><path class="cls-1" d="M79.4507,98.1231h8.74a2.9134,2.9134,0,0,0,0-5.8268H76.5374A2.9115,2.9115,0,0,0,73.624,95.21v14.5668H67.2606a8.74,8.74,0,1,0,0,5.8267h9.2768a2.9115,2.9115,0,0,0,2.9133-2.9134Z" transform="translate(-38.6023 -16.5491)"/><path class="cls-2" d="M124.1068,169.8052q-.0015,28.2537-.0031,56.5075-.0017,6.0487-5.1225,6.0542-35.2086.0092-70.4172.0028c-3.1527-.0006-4.9573-2.0876-4.9578-5.7489q-.0078-56.9967-.0012-113.9935c0-3.59,1.7969-5.7208,4.8352-5.7215q35.4182-.0084,70.8363.0021c3.0234.0009,4.8268,2.1405,4.8281,5.7372Q124.1148,141.2252,124.1068,169.8052Z" transform="translate(-38.6023 -16.5491)"/><path class="cls-2" d="M68.2166,167.6011a17.74,17.74,0,0,0-15.65,18.6061c.4277,9.57,8.7861,17.13,18.5985,16.8455,8.4908-.2463,16.8741-8.0178,16.7671-15.6782H68.2166Z" transform="translate(-38.6023 -16.5491)"/><path class="cls-2" d="M79.4728,115.911v33.3732H88.26V115.911Z" transform="translate(-38.6023 -16.5491)"/><path class="cls-2" d="M115.1,153.9535H52.655v4.3177H115.1Z" transform="translate(-38.6023 -16.5491)"/><path class="cls-2" d="M66.0589,122.6163v26.6663h8.7838V122.6163Z" transform="translate(-38.6023 -16.5491)"/><path class="cls-2" d="M101.6587,149.3655V124.8927H92.91v24.4728Z" transform="translate(-38.6023 -16.5491)"/><path class="cls-2" d="M88.0171,182.8848c-.5093-7.5417-8.0066-14.98-15.2371-15.257v15.257Z" transform="translate(-38.6023 -16.5491)"/><path class="cls-2" d="M52.5991,149.289H61.428V131.5777H52.5991Z" transform="translate(-38.6023 -16.5491)"/><path class="cls-2" d="M115.1154,131.6075h-8.8306v17.7031h8.8306Z" transform="translate(-38.6023 -16.5491)"/><path class="cls-2" d="M115.075,171.7356v-4.3591H92.911v4.3591Z" transform="translate(-38.6023 -16.5491)"/><path class="cls-2" d="M92.8757,185.2262v4.337h22.1911v-4.337Z" transform="translate(-38.6023 -16.5491)"/><path class="cls-2" d="M112.8961,176.3392H92.8907v4.26h20.0054Z" transform="translate(-38.6023 -16.5491)"/><path class="cls-2" d="M112.8668,194.2136H92.9118v4.3044h19.955Z" transform="translate(-38.6023 -16.5491)"/><path class="cls-2" d="M183.0928,180.1q-.0015,24.1713-.0032,48.3425-.0016,5.1748-5.1225,5.1795-35.2086.0076-70.4172.0023c-3.1527,0-4.9573-1.7859-4.9578-4.9182q-.0078-48.7611-.0012-97.5222c0-3.0712,1.7969-4.8942,4.8352-4.8948q35.4181-.0072,70.8363.0019c3.0234.0007,4.8269,1.8311,4.8281,4.9082Q183.1008,155.65,183.0928,180.1Zm-7.46,11.0194v-4.359H147.19v4.359ZM147.1445,204.61v4.3371h28.4783V204.61Zm25.6926-8.887H147.1637v4.26h25.6734ZM172.8,213.5978H147.1908v4.3044H172.8ZM139.4688,191.12v-4.359H111.0253v4.359ZM110.98,204.61v4.3371h28.4782V204.61Zm25.6926-8.887H110.9992v4.26h25.6734Zm-.0376,17.8744H111.0263v4.3044H136.635Z" transform="translate(-38.6023 -16.5491)"/><path class="cls-2" d="M183.0928,180.1q-.0015,24.1713-.0032,48.3425-.0016,5.1748-5.1225,5.1795-35.2086.0076-70.4172.0023c-3.1527,0-4.9573-1.7859-4.9578-4.9182q-.0078-48.7611-.0012-97.5222c0-3.0712,1.7969-4.8942,4.8352-4.8948q35.4181-.0072,70.8363.0019c3.0234.0007,4.8269,1.8311,4.8281,4.9082Q183.1008,155.65,183.0928,180.1Zm-7.46,11.0194v-4.359H147.19v4.359ZM147.1445,204.61v4.3371h28.4783V204.61Zm25.6926-8.887H147.1637v4.26h25.6734ZM172.8,213.5978H147.1908v4.3044H172.8ZM139.4688,191.12v-4.359H111.0253v4.359ZM110.98,204.61v4.3371h28.4782V204.61Zm25.6926-8.887H110.9992v4.26h25.6734Zm-.0376,17.8744H111.0263v4.3044H136.635Z" transform="translate(-38.6023 -16.5491)"/><path class="cls-2" d="M169.894,146.86a5.2427,5.2427,0,0,0-5.2875,5.1981,5.1088,5.1088,0,0,0,.2358,1.5392l-10.0463,9.9416a5.3715,5.3715,0,0,0-4.4956.0833L139.3,153.5525a5.1127,5.1127,0,0,0,.222-1.4942,5.2875,5.2875,0,1,0-10.4537,1.1094l-12.0491,10.7855a5.3574,5.3574,0,0,0-2.0693-.4141,5.2,5.2,0,1,0,5.2876,5.2,5.0775,5.0775,0,0,0-.2495-1.58l11.7516-10.5177a5.3776,5.3776,0,0,0,4.6443.1665l11.1289,10.1869a5.0935,5.0935,0,0,0-.1625,1.2894,5.2883,5.2883,0,0,0,10.575,0,5.12,5.12,0,0,0-.2152-1.4716l10.0829-9.9822a5.354,5.354,0,0,0,2.1013.4253,5.1989,5.1989,0,1,0,0-10.3962" transform="translate(-38.6023 -16.5491)"/><path class="cls-2" d="M169.894,146.86a5.2427,5.2427,0,0,0-5.2875,5.1981,5.1088,5.1088,0,0,0,.2358,1.5392l-10.0463,9.9416a5.3715,5.3715,0,0,0-4.4956.0833L139.3,153.5525a5.1127,5.1127,0,0,0,.222-1.4942,5.2875,5.2875,0,1,0-10.4537,1.1094l-12.0491,10.7855a5.3574,5.3574,0,0,0-2.0693-.4141,5.2,5.2,0,1,0,5.2876,5.2,5.0775,5.0775,0,0,0-.2495-1.58l11.7516-10.5177a5.3776,5.3776,0,0,0,4.6443.1665l11.1289,10.1869a5.0935,5.0935,0,0,0-.1625,1.2894,5.2883,5.2883,0,0,0,10.575,0,5.12,5.12,0,0,0-.2152-1.4716l10.0829-9.9822a5.354,5.354,0,0,0,2.1013.4253,5.1989,5.1989,0,1,0,0-10.3962" transform="translate(-38.6023 -16.5491)"/><path class="cls-3" d="M124.1068,169.8052q-.0015,28.2537-.0031,56.5075-.0017,6.0487-5.1225,6.0542-35.2086.0092-70.4172.0028c-3.1527-.0006-4.9573-2.0876-4.9578-5.7489q-.0078-56.9967-.0012-113.9935c0-3.59,1.7969-5.7208,4.8352-5.7215q35.4182-.0084,70.8363.0021c3.0234.0009,4.8268,2.1405,4.8281,5.7372Q124.1148,141.2252,124.1068,169.8052Z" transform="translate(-38.6023 -16.5491)"/><path class="cls-4" d="M68.2166,167.6011a17.74,17.74,0,0,0-15.65,18.6061c.4277,9.57,8.7861,17.13,18.5985,16.8455,8.4908-.2463,16.8741-8.0178,16.7671-15.6782H68.2166Z" transform="translate(-38.6023 -16.5491)"/><path class="cls-4" d="M79.4728,115.911v33.3732H88.26V115.911Z" transform="translate(-38.6023 -16.5491)"/><path class="cls-4" d="M115.1,153.9535H52.655v4.3177H115.1Z" transform="translate(-38.6023 -16.5491)"/><path class="cls-4" d="M66.0589,122.6163v26.6663h8.7838V122.6163Z" transform="translate(-38.6023 -16.5491)"/><path class="cls-4" d="M101.6587,149.3655V124.8927H92.91v24.4728Z" transform="translate(-38.6023 -16.5491)"/><path class="cls-4" d="M88.0171,182.8848c-.5093-7.5417-8.0066-14.98-15.2371-15.257v15.257Z" transform="translate(-38.6023 -16.5491)"/><path class="cls-4" d="M52.5991,149.289H61.428V131.5777H52.5991Z" transform="translate(-38.6023 -16.5491)"/><path class="cls-4" d="M115.1154,131.6075h-8.8306v17.7031h8.8306Z" transform="translate(-38.6023 -16.5491)"/><path class="cls-4" d="M115.075,171.7356v-4.3591H92.911v4.3591Z" transform="translate(-38.6023 -16.5491)"/><path class="cls-4" d="M92.8757,185.2262v4.337h22.1911v-4.337Z" transform="translate(-38.6023 -16.5491)"/><path class="cls-4" d="M112.8961,176.3392H92.8907v4.26h20.0054Z" transform="translate(-38.6023 -16.5491)"/><path class="cls-4" d="M112.8668,194.2136H92.9118v4.3044h19.955Z" transform="translate(-38.6023 -16.5491)"/><path class="cls-5" d="M183.0928,180.1q-.0015,24.1713-.0032,48.3425-.0016,5.1748-5.1225,5.1795-35.2086.0076-70.4172.0023c-3.1527,0-4.9573-1.7859-4.9578-4.9182q-.0078-48.7611-.0012-97.5222c0-3.0712,1.7969-4.8942,4.8352-4.8948q35.4181-.0072,70.8363.0019c3.0234.0007,4.8269,1.8311,4.8281,4.9082Q183.1008,155.65,183.0928,180.1Zm-7.46,11.0194v-4.359H147.19v4.359ZM147.1445,204.61v4.3371h28.4783V204.61Zm25.6926-8.887H147.1637v4.26h25.6734ZM172.8,213.5978H147.1908v4.3044H172.8ZM139.4688,191.12v-4.359H111.0253v4.359ZM110.98,204.61v4.3371h28.4782V204.61Zm25.6926-8.887H110.9992v4.26h25.6734Zm-.0376,17.8744H111.0263v4.3044H136.635Z" transform="translate(-38.6023 -16.5491)"/><path class="cls-3" d="M183.0928,180.1q-.0015,24.1713-.0032,48.3425-.0016,5.1748-5.1225,5.1795-35.2086.0076-70.4172.0023c-3.1527,0-4.9573-1.7859-4.9578-4.9182q-.0078-48.7611-.0012-97.5222c0-3.0712,1.7969-4.8942,4.8352-4.8948q35.4181-.0072,70.8363.0019c3.0234.0007,4.8269,1.8311,4.8281,4.9082Q183.1008,155.65,183.0928,180.1Zm-7.46,11.0194v-4.359H147.19v4.359ZM147.1445,204.61v4.3371h28.4783V204.61Zm25.6926-8.887H147.1637v4.26h25.6734ZM172.8,213.5978H147.1908v4.3044H172.8ZM139.4688,191.12v-4.359H111.0253v4.359ZM110.98,204.61v4.3371h28.4782V204.61Zm25.6926-8.887H110.9992v4.26h25.6734Zm-.0376,17.8744H111.0263v4.3044H136.635Z" transform="translate(-38.6023 -16.5491)"/><path class="cls-4" d="M169.894,146.86a5.2427,5.2427,0,0,0-5.2875,5.1981,5.1088,5.1088,0,0,0,.2358,1.5392l-10.0463,9.9416a5.3715,5.3715,0,0,0-4.4956.0833L139.3,153.5525a5.1127,5.1127,0,0,0,.222-1.4942,5.2875,5.2875,0,1,0-10.4537,1.1094l-12.0491,10.7855a5.3574,5.3574,0,0,0-2.0693-.4141,5.2,5.2,0,1,0,5.2876,5.2,5.0775,5.0775,0,0,0-.2495-1.58l11.7516-10.5177a5.3776,5.3776,0,0,0,4.6443.1665l11.1289,10.1869a5.0935,5.0935,0,0,0-.1625,1.2894,5.2883,5.2883,0,0,0,10.575,0,5.12,5.12,0,0,0-.2152-1.4716l10.0829-9.9822a5.354,5.354,0,0,0,2.1013.4253,5.1989,5.1989,0,1,0,0-10.3962" transform="translate(-38.6023 -16.5491)"/><path class="cls-2" d="M115.795,91.7881q-.0063-2.645-.031-5.29a3.4366,3.4366,0,0,1,3.6469-3.6448c1.2039.0157,2.4089-.0241,3.612.0107a3.2811,3.2811,0,0,1,3.0976,1.8148,4.0823,4.0823,0,0,1,.3445,1.7194q.0114,3.0356.014,6.071l.0022,11.984q0,3.9215-.0017,7.8429v.5512c.1673-.1541.2806-.2517.3863-.3569,2.5593-2.5492,5.1574-5.0612,7.6614-7.6636a3.6037,3.6037,0,0,1,5.3266.0169c.6085.69,1.2978,1.3082,1.9487,1.9606a3.5376,3.5376,0,0,1-.0025,5.011c-6.0025,6.0014-12.0291,11.9792-17.99,18.0219a3.7842,3.7842,0,0,1-5.36.01c-5.951-6.0107-11.95-11.9736-17.93-17.9558a3.5832,3.5832,0,0,1-.0134-5.1545c.66-.664,1.32-1.3292,1.9875-1.9857a3.5248,3.5248,0,0,1,5.1678.0041q3.8733,3.8526,7.7255,7.7263a2.6505,2.6505,0,0,1,.2565.3576l.14-.093v-.5284c0-3.304.0119-6.6081.0137-9.912Z" transform="translate(-38.6023 -16.5491)"/><path class="cls-3" d="M115.795,91.7881q-.0063-2.645-.031-5.29a3.4366,3.4366,0,0,1,3.6469-3.6448c1.2039.0157,2.4089-.0241,3.612.0107a3.2811,3.2811,0,0,1,3.0976,1.8148,4.0823,4.0823,0,0,1,.3445,1.7194q.0114,3.0356.014,6.071l.0022,11.984q0,3.9215-.0017,7.8429v.5512c.1673-.1541.2806-.2517.3863-.3569,2.5593-2.5492,5.1574-5.0612,7.6614-7.6636a3.6037,3.6037,0,0,1,5.3266.0169c.6085.69,1.2978,1.3082,1.9487,1.9606a3.5376,3.5376,0,0,1-.0025,5.011c-6.0025,6.0014-12.0291,11.9792-17.99,18.0219a3.7842,3.7842,0,0,1-5.36.01c-5.951-6.0107-11.95-11.9736-17.93-17.9558a3.5832,3.5832,0,0,1-.0134-5.1545c.66-.664,1.32-1.3292,1.9875-1.9857a3.5248,3.5248,0,0,1,5.1678.0041q3.8733,3.8526,7.7255,7.7263a2.6505,2.6505,0,0,1,.2565.3576l.14-.093v-.5284c0-3.304.0119-6.6081.0137-9.912Z" transform="translate(-38.6023 -16.5491)"/></svg>