<svg id="Layer_1" data-name="Layer 1" xmlns="http://www.w3.org/2000/svg" viewBox="0 0 223.1017 229.2549"><defs><style>.cls-1{fill:#bf2026;}.cls-2{fill:none;stroke:#fff;stroke-width:15px;}</style></defs><path class="cls-1" d="M13.01,155.83c.4043-3.4029,2.6242-5.6353,4.9117-7.908q18.2811-18.1626,36.47-36.4183c2.5911-2.5923,5.6083-3.57,9.1394-2.3818a8.4989,8.4989,0,0,1,3.6725,13.6163c-.4011.4674-.85.8944-1.2867,1.3306q-15.4435,15.4356-30.8941,30.8642c-.4356.4348-.94.801-1.8259,1.548a12.6425,12.6425,0,0,1,1.7484,1.1945q15.8,15.7343,31.5637,31.5038c4.102,4.1078,3.5667,10.4211-1.084,13.4558a8.5126,8.5126,0,0,1-10.0585-.58c-.5124-.4268-.9812-.9079-1.4539-1.38Q35.9,182.68,17.8738,164.6982c-2.2951-2.2791-4.4832-4.5342-4.8638-7.9427Z" transform="translate(-13.01 -11.8247)"/><path class="cls-1" d="M215.7353,154.4236c-.5668-.4555-1.0456-.7726-1.4439-1.17q-15.832-15.8016-31.642-31.625c-4.7588-4.7756-2.9375-12.468,3.3757-14.3459a8.2487,8.2487,0,0,1,8.29,1.9625c.8783.79,1.6839,1.66,2.52,2.4963q18.1675,18.1554,36.3322,36.3138c3.8925,3.8944,3.9312,9.1524.0764,13.0107q-19.2436,19.2609-38.5208,38.4882c-4.8886,4.869-12.7256,2.9326-14.4658-3.5789a8.2767,8.2767,0,0,1,2.4086-8.45q8.7519-8.7006,17.4617-17.4433,7.1463-7.1429,14.2917-14.2868C214.78,155.4356,215.1245,155.0614,215.7353,154.4236Z" transform="translate(-13.01 -11.8247)"/><path class="cls-1" d="M177.72,106.9534c-.61,3.7553-1.2374,7.6543-1.8773,11.5512q-2.6937,16.4025-5.3949,32.8039-2.6937,16.4026-5.38,32.8065c-1.0817,6.5812-2.1853,13.1588-3.2618,19.7408a9.2815,9.2815,0,1,1-18.29-3.139q3.9564-23.994,7.8545-47.9977,3.8585-23.5422,7.7414-47.08c.7791-4.7184,4.2323-7.9445,8.6766-8.1747a9.1367,9.1367,0,0,1,9.5432,6.8914A23.8645,23.8645,0,0,1,177.72,106.9534Z" transform="translate(-13.01 -11.8247)"/><path class="cls-2" d="M88.45,150.45a41.8084,41.8084,0,0,1,2.3581-14.9347,30.8452,30.8452,0,0,1,7.8842-11.4094Q106.91,116.21,113.77,110.3384c4.5972-3.8826,8.5273-7.5507,11.862-10.9569a57.8877,57.8877,0,0,0,7.7413-9.6707,17.8915,17.8915,0,0,0,2.7869-9.5039c0-6.455-2.0008-11.4571-6.0025-15.0776s-9.0275-5.407-15.0776-5.407q-13.7558,0-20.9134,7.5984a29.4534,29.4534,0,0,0-8.0509,18.4361L41.05,82.8271Q44.2652,51.8143,63.8685,35.57q19.6152-16.2567,50.3541-16.2448a84.8,84.8,0,0,1,25.2961,3.6682A62.3051,62.3051,0,0,1,160.4559,33.95,52.3853,52.3853,0,0,1,174.7952,52.1q5.2878,10.826,5.264,24.8912A62.4881,62.4881,0,0,1,178.32,92.3548a48.7043,48.7043,0,0,1-6.0025,13.6008A80.19,80.19,0,0,1,161.1943,119.58a190.4571,190.4571,0,0,1-17.4119,15.0538q-6.7529,5.288-9.0752,10.2423a23.1622,23.1622,0,0,0-2.3581,9.9565v8.5035H88.45Zm-4.9783,56.19A27.5446,27.5446,0,0,1,85.52,196.1118a26.4514,26.4514,0,0,1,5.7166-8.6464,26.0409,26.0409,0,0,1,8.6226-5.6928,28.14,28.14,0,0,1,21.08,0,25.6564,25.6564,0,0,1,14.3393,14.3392,28.1411,28.1411,0,0,1,0,21.08,26.0425,26.0425,0,0,1-5.6928,8.6226,26.4519,26.4519,0,0,1-8.6465,5.7166,28.14,28.14,0,0,1-21.08,0A26.0429,26.0429,0,0,1,85.52,217.1919,27.6646,27.6646,0,0,1,83.4718,206.64Z" transform="translate(-13.01 -11.8247)"/><path class="cls-1" d="M88.45,150.45a41.8084,41.8084,0,0,1,2.3581-14.9347,30.8452,30.8452,0,0,1,7.8842-11.4094Q106.91,116.21,113.77,110.3384c4.5972-3.8826,8.5273-7.5507,11.862-10.9569a57.8877,57.8877,0,0,0,7.7413-9.6707,17.8915,17.8915,0,0,0,2.7869-9.5039c0-6.455-2.0008-11.4571-6.0025-15.0776s-9.0275-5.407-15.0776-5.407q-13.7558,0-20.9134,7.5984a29.4534,29.4534,0,0,0-8.0509,18.4361L41.05,82.8271Q44.2652,51.8143,63.8685,35.57q19.6152-16.2567,50.3541-16.2448a84.8,84.8,0,0,1,25.2961,3.6682A62.3051,62.3051,0,0,1,160.4559,33.95,52.3853,52.3853,0,0,1,174.7952,52.1q5.2878,10.826,5.264,24.8912A62.4881,62.4881,0,0,1,178.32,92.3548a48.7043,48.7043,0,0,1-6.0025,13.6008A80.19,80.19,0,0,1,161.1943,119.58a190.4571,190.4571,0,0,1-17.4119,15.0538q-6.7529,5.288-9.0752,10.2423a23.1622,23.1622,0,0,0-2.3581,9.9565v8.5035H88.45Zm-4.9783,56.19A27.5446,27.5446,0,0,1,85.52,196.1118a26.4514,26.4514,0,0,1,5.7166-8.6464,26.0409,26.0409,0,0,1,8.6226-5.6928,28.14,28.14,0,0,1,21.08,0,25.6564,25.6564,0,0,1,14.3393,14.3392,28.1411,28.1411,0,0,1,0,21.08,26.0425,26.0425,0,0,1-5.6928,8.6226,26.4519,26.4519,0,0,1-8.6465,5.7166,28.14,28.14,0,0,1-21.08,0A26.0429,26.0429,0,0,1,85.52,217.1919,27.6646,27.6646,0,0,1,83.4718,206.64Z" transform="translate(-13.01 -11.8247)"/></svg>