<svg id="Layer_9" data-name="Layer 9" xmlns="http://www.w3.org/2000/svg" xmlns:xlink="http://www.w3.org/1999/xlink" viewBox="0 0 101.3548 154.4167"><defs><style>.cls-1{fill:none;}.cls-2{fill:#c02429;}.cls-3{fill:#fff;}.cls-4{clip-path:url(#clip-path);}</style><clipPath id="clip-path" transform="translate(-69.7466 -45.2659)"><rect class="cls-1" x="99.7171" y="141.2219" width="53.7669" height="8.6871"/></clipPath></defs><path class="cls-2" d="M131.9563,71.6026c0,2.3588,0,4.5492,0,6.74,0,6.4108.0357,12.8219-.0278,19.232a2.0725,2.0725,0,0,0,1.74,2.3714c19.7861,6.23,32.3941,19.3891,36.466,39.7428a50.6092,50.6092,0,1,1-99.7725,16.95,50.9646,50.9646,0,0,1,34.5036-56.5947c1.7153-.5613,2.3452-1.253,2.3193-3.0993-.1091-7.792-.067-15.5865-.0271-23.38.007-1.3634-.0837-2.1954-1.8574-2.19a2.9055,2.9055,0,0,1-3.1623-3.0259c.0012-1.7811,1.2434-3.0513,3.3558-3.0633q13.67-.0781,27.34-.0055c2.079.0094,3.2546,1.1024,3.37,2.815.1227,1.8278-.7815,2.8825-2.8583,3.3145C132.9827,71.4848,132.6106,71.5133,131.9563,71.6026Z" transform="translate(-69.7466 -45.2659)"/><path class="cls-3" d="M105.7009,149.9087q28.4928,0,56.9857.0007c2.709,0,2.6233.009,2.3622,2.7838A44.262,44.262,0,0,1,122.69,193.4817c-13.1448.66-24.5946-3.4111-34.1084-12.5215A42.8031,42.8031,0,0,1,75.71,155.6077c-.2633-1.7813-.3629-3.5868-.5646-5.6526H87.5392" transform="translate(-69.7466 -45.2659)"/><path d="M120.3329,164.92a2.99,2.99,0,0,1-3.0554,3.0862,3.1191,3.1191,0,1,1,.0628-6.2278A2.9765,2.9765,0,0,1,120.3329,164.92Z" transform="translate(-69.7466 -45.2659)"/><polygon class="cls-3" points="26.246 91.779 33.481 87.602 40.716 91.779 40.716 100.133 33.481 104.31 26.246 100.133 26.246 91.779"/><polygon class="cls-3" points="41.976 91.779 49.211 87.602 56.446 91.779 56.446 100.133 49.211 104.31 41.976 100.133 41.976 91.779"/><polygon class="cls-2" points="34.451 105.4 41.686 101.223 48.921 105.4 48.921 113.754 41.686 117.931 34.451 113.754 34.451 105.4"/><polygon class="cls-2" points="26.246 119.021 33.481 114.844 40.716 119.021 40.716 127.375 33.481 131.552 26.246 127.375 26.246 119.021"/><polygon class="cls-2" points="42.314 119.021 49.549 114.844 56.784 119.021 56.784 127.375 49.549 131.552 42.314 127.375 42.314 119.021"/><polygon class="cls-3" points="34.451 78.405 41.686 74.228 48.921 78.405 48.921 86.76 41.686 90.937 34.451 86.76 34.451 78.405"/><polygon class="cls-3" points="57.547 91.779 64.782 87.602 72.017 91.779 72.017 100.133 64.782 104.31 57.547 100.133 57.547 91.779"/><polygon class="cls-2" points="65.752 105.4 72.987 101.223 80.222 105.4 80.222 113.754 72.987 117.931 65.752 113.754 65.752 105.4"/><polygon class="cls-2" points="50.167 105.4 57.402 101.223 64.637 105.4 64.637 113.754 57.402 117.931 50.167 113.754 50.167 105.4"/><g class="cls-4"><polygon class="cls-3" points="65.752 105.4 72.987 101.223 80.222 105.4 80.222 113.754 72.987 117.931 65.752 113.754 65.752 105.4"/><polygon class="cls-3" points="50.167 105.4 57.402 101.223 64.637 105.4 64.637 113.754 57.402 117.931 50.167 113.754 50.167 105.4"/><polygon class="cls-3" points="50.106 105.4 57.341 101.223 64.576 105.4 64.576 113.754 57.341 117.931 50.106 113.754 50.106 105.4"/><polygon class="cls-3" points="34.522 105.4 41.757 101.223 48.992 105.4 48.992 113.754 41.757 117.931 34.522 113.754 34.522 105.4"/></g><polygon class="cls-2" points="40.793 8.505 44.266 6.5 47.739 8.505 47.739 12.515 44.266 14.52 40.793 12.515 40.793 8.505"/><polygon class="cls-2" points="47.87 1.331 50.175 0 52.48 1.331 52.48 3.993 50.175 5.324 47.87 3.993 47.87 1.331"/><polygon class="cls-3" points="51.401 30.416 53.706 29.085 56.011 30.416 56.011 33.078 53.706 34.409 51.401 33.078 51.401 30.416"/><polygon class="cls-3" points="47.87 43.298 50.49 41.785 53.111 43.298 53.111 46.324 50.49 47.837 47.87 46.324 47.87 43.298"/><polygon class="cls-3" points="51.086 48.39 53.706 46.877 56.327 48.39 56.327 51.416 53.706 52.929 51.086 51.416 51.086 48.39"/><polygon class="cls-3" points="40.208 59.489 44.565 56.974 48.921 59.489 48.921 64.52 44.565 67.035 40.208 64.52 40.208 59.489"/><polygon class="cls-3" points="53.111 68.278 57.467 65.762 61.823 68.278 61.823 73.308 57.467 75.823 53.111 73.308 53.111 68.278"/></svg>