<svg id="Layer_2" data-name="Layer 2" xmlns="http://www.w3.org/2000/svg" viewBox="0 0 172.1179 202.3574"><defs><style>.cls-1{fill:#bf2629;}.cls-2{fill:none;stroke:#fff;stroke-width:15px;}.cls-3{fill:#c9232d;}</style></defs><path class="cls-1" d="M119.5672,72.3292c2.611.8171,5.2082,1.4085,7.5693,2.4028,24.2809,10.225,48.5886,20.408,72.6884,30.9326,2.7812,1.2146,5.9928,4.421,6.0116,6.7216.0187,2.2935-3.1515,5.5689-5.916,6.7649-24.3222,10.5226-48.8835,20.6472-73.33,30.9649a17.2868,17.2868,0,0,1-14.3249-.0175c-24.3672-10.4513-48.8468-20.7164-73.0969-31.358-2.5906-1.1367-5.4641-4.3015-5.45-6.5131.0139-2.2182,2.9149-5.3448,5.5186-6.4865,24.2538-10.6348,48.705-20.9467,73.1378-31.2862A66.8219,66.8219,0,0,1,119.5672,72.3292Z" transform="translate(-33.7186 -22.889)"/><path class="cls-1" d="M205.3412,187.88c-.9382.9206-2.392,3.4854-4.7678,4.5038Q162.2018,208.83,123.4957,224.71c-2.304.9419-6.2082.5528-8.6513-.4614C89.7943,213.85,64.88,203.2167,39.96,192.5941c-5.2117-2.2216-6.9413-5.9334-4.7617-9.5568,2.2036-3.6632,6.6077-4.6994,11.914-2.44,21.3167,9.078,42.6674,18.105,63.7974,27.4879,5.85,2.5976,10.5962,2.87,16.6371.1766,21.28-9.4868,42.8531-18.5012,64.3588-27.6207C198.9,177.6754,205.305,180.4406,205.3412,187.88Z" transform="translate(-33.7186 -22.889)"/><path class="cls-1" d="M205.3268,139.2425c-.9671.92-2.473,3.437-4.8676,4.463q-38.1085,16.3273-76.5388,32.1089a13.21,13.21,0,0,1-8.6948-.1784C89.9871,165.1885,64.8944,154.4871,39.8,143.7913c-5.1622-2.2-6.81-6.0152-4.5077-9.6217,2.3342-3.6561,6.6187-4.5906,11.9749-2.2995,21.6422,9.2576,43.3026,18.4877,64.8011,27.9807a16.4976,16.4976,0,0,0,14.5941.0521c21.6939-9.5206,43.5378-18.7969,65.3851-28.0638C198.9778,128.8993,205.433,131.8264,205.3268,139.2425Z" transform="translate(-33.7186 -22.889)"/><path class="cls-1" d="M119.8787,201.5981c-2.0243-.6268-3.89-1.0383-5.5776-1.752Q77.3717,184.23,40.4918,168.529c-5.6917-2.4245-7.5387-6.0023-5.2971-9.7842,2.2762-3.84,6.69-4.7427,12.3955-2.3,21.6363,9.2616,43.3015,18.4782,64.8,27.9662a15.8992,15.8992,0,0,0,14.054-.0159q32.3088-14.1376,64.9475-27.727a16.0393,16.0393,0,0,1,9.6479-.5807c1.9862.5914,4.3257,3.9839,3.9532,5.7352a10.6,10.6,0,0,1-5.3966,6.6381c-13.2348,5.9821-26.7951,11.4467-40.2417,17.0919-11.0344,4.6326-22.0565,9.2864-33.114,13.8789C124.203,200.2771,122.0226,200.8754,119.8787,201.5981Z" transform="translate(-33.7186 -22.889)"/><path class="cls-2" d="M105.5431,79.6016V62.8889h11.0746V79.6016h10.2685v10.57H116.6177v14.2257H105.5431V90.1719H71.9171v-8.86L95.9785,31.8645h11.4777L84.602,79.6016Z" transform="translate(-33.7186 -22.889)"/><path class="cls-2" d="M145.9985,63.6481c7.4811,7.38,13.2434,13.6492,13.2434,23.6575,0,11.3233-7.3794,18.5-17.9949,18.5-11.1209,0-17.9948-7.7832-17.9948-18.601V79.6232h11.2216v6.6715c0,5.6607,1.9211,8.8968,6.6725,8.8968,3.2351,0,6.47-1.5164,6.47-6.9756,0-6.7743-5.0555-11.3233-11.2216-17.1874-6.0664-5.862-12.6373-12.5356-12.6373-22.9487,0-9.3,5.1562-17.6908,17.4894-17.6908,10.6155,0,17.0857,6.1661,17.0857,19.8133v4.6518H147.1111V50.8105c0-7.38-2.0218-10.0084-5.8641-10.0084-4.0436,0-5.863,3.0327-5.863,6.7723C135.384,53.237,139.63,57.3813,145.9985,63.6481Z" transform="translate(-33.7186 -22.889)"/><path class="cls-3" d="M105.5431,79.6016V62.8889h11.0746V79.6016h10.2685v10.57H116.6177v14.2257H105.5431V90.1719H71.9171v-8.86L95.9785,31.8645h11.4777L84.602,79.6016Z" transform="translate(-33.7186 -22.889)"/><path class="cls-3" d="M145.9985,63.6481c7.4811,7.38,13.2434,13.6492,13.2434,23.6575,0,11.3233-7.3794,18.5-17.9949,18.5-11.1209,0-17.9948-7.7832-17.9948-18.601V79.6232h11.2216v6.6715c0,5.6607,1.9211,8.8968,6.6725,8.8968,3.2351,0,6.47-1.5164,6.47-6.9756,0-6.7743-5.0555-11.3233-11.2216-17.1874-6.0664-5.862-12.6373-12.5356-12.6373-22.9487,0-9.3,5.1562-17.6908,17.4894-17.6908,10.6155,0,17.0857,6.1661,17.0857,19.8133v4.6518H147.1111V50.8105c0-7.38-2.0218-10.0084-5.8641-10.0084-4.0436,0-5.863,3.0327-5.863,6.7723C135.384,53.237,139.63,57.3813,145.9985,63.6481Z" transform="translate(-33.7186 -22.889)"/></svg>