<svg id="Layer_11" data-name="Layer 11" xmlns="http://www.w3.org/2000/svg" viewBox="0 0 160.1238 205.6395"><defs><style>.cls-1{fill:#bf2026;}.cls-2{fill:#fff;}.cls-3{fill:none;stroke:#fff;stroke-width:10px;}.cls-4{fill:#bf2629;}</style></defs><path class="cls-1" d="M88.2206,112.7984a41.9652,41.9652,0,1,1,41.9642-41.9662,42.013,42.013,0,0,1-41.9642,41.9662Zm0-77.6361a35.6709,35.6709,0,1,0,35.67,35.67,35.71,35.71,0,0,0-35.67-35.67Z" transform="translate(-46.2564 -28.868)"/><path class="cls-1" d="M88.2206,97.6043a26.7712,26.7712,0,1,1,26.77-26.7721,26.801,26.801,0,0,1-26.77,26.7721Zm0-49.5262a22.7552,22.7552,0,1,0,22.7543,22.7541A22.78,22.78,0,0,0,88.2206,48.0781Z" transform="translate(-46.2564 -28.868)"/><path class="cls-1" d="M162.03,111.9487a9.7956,9.7956,0,0,0-9.39,7.0137,24.9661,24.9661,0,0,0-4.7819-.7361v-6.71a9.7919,9.7919,0,1,0-19.5837,0v6.6382h-4.7161v-15.559a9.7906,9.7906,0,0,0-19.5812,0v15.612a25.3262,25.3262,0,0,0-4.7182.6322V72.3279a9.7918,9.7918,0,1,0-19.5836,0v70.1534c-.0148.3671-.055.7319-.055,1.1012v24.4014l-4.5147-4.5126v-19.558a14.4594,14.4594,0,0,0-14.4578-14.46H55.832c-.2038,0-.3969.0257-.6048.04v18.109c-.0317-.0063-.0615-.0158-.0932-.0189v24.0323l32.4247,31.7289a25.3385,25.3385,0,0,0,17.4962,7.0062h41.3266a25.4381,25.4381,0,0,0,25.4323-25.44v-63.17A9.7906,9.7906,0,0,0,162.03,111.9487Z" transform="translate(-46.2564 -28.868)"/><circle class="cls-2" cx="101.1403" cy="144.7824" r="28.3124"/><path class="cls-3" d="M105.79,166.4377A40.3791,40.3791,0,1,1,179.104,196.07l20.625,20.6214a5.6389,5.6389,0,0,1,0,7.974l-3.1911,3.191a5.639,5.639,0,0,1-7.9739,0L167.9426,207.235a40.3905,40.3905,0,0,1-62.1669-26.4412,42.866,42.866,0,0,1,.0145-14.3561m12.3882,14.59a29.7048,29.7048,0,0,0,7.324,12.6437,28.357,28.357,0,0,0,33.674,4.7975,28.5865,28.5865,0,0,0,11.1614-11.165,28.3207,28.3207,0,1,0-52.0134-21.5524,26.0242,26.0242,0,0,0-.146,15.2762" transform="translate(-46.2564 -28.868)"/><path class="cls-4" d="M105.79,166.4377A40.3791,40.3791,0,1,1,179.104,196.07l20.625,20.6214a5.6389,5.6389,0,0,1,0,7.974l-3.1911,3.191a5.639,5.639,0,0,1-7.9739,0L167.9426,207.235a40.3905,40.3905,0,0,1-62.1669-26.4412,42.866,42.866,0,0,1,.0145-14.3561m12.3882,14.59a29.7048,29.7048,0,0,0,7.324,12.6437,28.357,28.357,0,0,0,33.674,4.7975,28.5865,28.5865,0,0,0,11.1614-11.165,28.3207,28.3207,0,1,0-52.0134-21.5524,26.0242,26.0242,0,0,0-.146,15.2762" transform="translate(-46.2564 -28.868)"/></svg>