<svg id="Layer_10" data-name="Layer 10" xmlns="http://www.w3.org/2000/svg" viewBox="0 0 184.6003 218.9466"><defs><style>.cls-1{fill:#be2227;}.cls-2{fill:#bf2026;}.cls-3{fill:#fff;}.cls-4{fill:none;stroke:#fff;stroke-miterlimit:10;stroke-width:12px;}</style></defs><path class="cls-1" d="M217.12,101.8739c-.704.9336-1.8293,3.17-3.5962,4.6286-5.1511,4.2533-5.3384,8.7772.06,12.7168,5.2531,3.8334,3.7849,8.0133,1.2027,12.5412-2.4537,4.3024-5.41,6.7256-10.6464,4.3913-5.9489-2.6521-9.35-.6528-9.9865,5.6-.6359,6.25-4.04,8.81-11.1412,8.936-6.0221.1071-8.6992-2.6983-9.0142-8.5822-.3062-5.7217-5.6533-8.8959-10.7937-6.3242-5.66,2.8314-8.9194.618-11.6231-4.3252-3.5883-6.5607-3.3652-8.7319,1.97-12.6709,4.4339-3.2733,4.4334-8.7326-.3143-11.9207-5.318-3.5709-4.6405-7.52-1.8073-12.2879,2.745-4.62,5.6346-7.6612,11.5-4.8052,5.6324,2.7427,9.8342-.0984,11.2625-6.4129.4478-1.98,2.84-4.3085,4.8355-4.9561,2.638-.8561,5.7623-.2544,8.6764-.2095,4.2551.0656,6.3468,1.9981,6.5007,6.5231.1718,5.0515,3.9953,7.49,8.2148,5.7727C209.842,87.4677,216.9885,92.278,217.12,101.8739Zm-33.9219.3278a11.9817,11.9817,0,0,0-11.8884,11.9337,11.6759,11.6759,0,0,0,11.6116,12.0729,12.0573,12.0573,0,0,0,12.37-12.1057A12.4241,12.4241,0,0,0,183.1976,102.2017Z" transform="translate(-32.5238 -18.2406)"/><path class="cls-1" d="M194.2388,53.9138a61.4134,61.4134,0,0,1-.0407,6.5506c-.492,5.1514-4.5858,9.065-9.5121,8.889-5.1562-.1842-8.7809-2.852-9.5824-8.0827-.5618-3.6666-.2752-7.46-.4093-11.196-.2918-8.1237-3.88-11.7306-11.989-11.7873-11.6451-.0814-23.2916.03-34.9369-.0453-7.1672-.0467-11.248-3.5823-11.3669-9.5821-.12-6.0418,3.9187-10.0029,10.9248-10.0927,12.4754-.16,24.9573-.2058,37.4311.0094C180.46,18.8476,196.0759,31.51,194.2388,53.9138Z" transform="translate(-32.5238 -18.2406)"/><path class="cls-1" d="M193.7736,176.3327c0-1.6939.1955-4.4154-.0407-7.0923-.492-5.5775-4.5858-9.8147-9.5121-9.6242-5.1562.1994-8.781,3.0879-9.5824,8.7512-.5618,3.97-.2752,8.0774-.4093,12.1219-.2919,8.7955-3.88,12.7007-11.989,12.7621-11.6452.0881-23.2917-.033-34.9369.0491-7.1672.05-11.248,3.8785-11.3669,10.3744-.12,6.5415,3.9187,10.83,10.9248,10.9274,12.4754.1733,24.9573.2228,37.4311-.01C179.9946,214.2988,195.6107,200.59,193.7736,176.3327Z" transform="translate(-32.5238 -18.2406)"/><path class="cls-2" d="M65.0778,18.2406c-32.554,0-32.554,0-32.554,32.6212,0,31.6128,0,31.6128,31.4623,31.6128,32.9539,0,32.9539,0,32.9539-32.2974C96.94,18.2406,96.94,18.2406,65.0778,18.2406Z" transform="translate(-32.5238 -18.2406)"/><path class="cls-3" d="M64.9514,29.9779c-20.657,0-20.657,0-20.657,20.7,0,20.06,0,20.06,19.9643,20.06,20.9107,0,20.9107,0,20.9107-20.4942C85.1694,29.9779,85.1694,29.9779,64.9514,29.9779Z" transform="translate(-32.5238 -18.2406)"/><path class="cls-2" d="M65.0778,94.233c-32.554,0-32.554,0-32.554,32.6212,0,31.6128,0,31.6128,31.4623,31.6128,32.9539,0,32.9539,0,32.9539-32.2974C96.94,94.233,96.94,94.233,65.0778,94.233Z" transform="translate(-32.5238 -18.2406)"/><path class="cls-3" d="M64.9514,105.97c-20.657,0-20.657,0-20.657,20.7,0,20.06,0,20.06,19.9643,20.06,20.9107,0,20.9107,0,20.9107-20.4942C85.1694,105.97,85.1694,105.97,64.9514,105.97Z" transform="translate(-32.5238 -18.2406)"/><path class="cls-1" d="M65.0778,172.4282c-32.554,0-32.554,0-32.554,32.6212,0,31.6128,0,31.6128,31.4623,31.6128,32.9539,0,32.9539,0,32.9539-32.2974C96.94,172.4282,96.94,172.4282,65.0778,172.4282Z" transform="translate(-32.5238 -18.2406)"/><path class="cls-4" d="M109.3521,195.4863h.9071c8.7295-.0075,17.4552.0451,26.181-.0413a4.6757,4.6757,0,0,1,5.1236,4.8193c-.0222,1.5889.0371,3.1778-.0111,4.7667a4.2926,4.2926,0,0,1-2.5618,4.083,6.1192,6.1192,0,0,1-2.4212.4508c-8.8109.0376-17.6218.03-26.4327.0338h-.7737c.2259.2291.3665.3756.5182.5183,3.5171,3.3056,6.96,6.6862,10.5805,9.8865,2.3879,2.111,2.5582,5.3865-.0369,7.4562-.9071.7212-1.6956,1.5739-2.54,2.3627a5.2264,5.2264,0,0,1-7.0562-.0113c-8.4369-7.9032-16.8407-15.84-25.3443-23.6832a4.8029,4.8029,0,0,1-.0037-7.1594c8.4333-7.8243,16.7888-15.72,25.174-23.5893a5.2781,5.2781,0,0,1,7.3486-.0113c.9181.86,1.8437,1.7129,2.7506,2.5805a4.4564,4.4564,0,0,1-.0148,6.8214q-5.42,5.116-10.8655,10.2058c-.1444.1314-.2814.2742-.5221.5108" transform="translate(-32.5238 -18.2406)"/><path class="cls-1" d="M109.3521,195.4863h.9071c8.7295-.0075,17.4552.0451,26.181-.0413a4.6757,4.6757,0,0,1,5.1236,4.8193c-.0222,1.5889.0371,3.1778-.0111,4.7667a4.2926,4.2926,0,0,1-2.5618,4.083,6.1192,6.1192,0,0,1-2.4212.4508c-8.8109.0376-17.6218.03-26.4327.0338h-.7737c.2259.2291.3665.3756.5182.5183,3.5171,3.3056,6.96,6.6862,10.5805,9.8865,2.3879,2.111,2.5582,5.3865-.0369,7.4562-.9071.7212-1.6956,1.5739-2.54,2.3627a5.2264,5.2264,0,0,1-7.0562-.0113c-8.4369-7.9032-16.8407-15.84-25.3443-23.6832a4.8029,4.8029,0,0,1-.0037-7.1594c8.4333-7.8243,16.7888-15.72,25.174-23.5893a5.2781,5.2781,0,0,1,7.3486-.0113c.9181.86,1.8437,1.7129,2.7506,2.5805a4.4564,4.4564,0,0,1-.0148,6.8214q-5.42,5.116-10.8655,10.2058c-.1444.1314-.2814.2742-.5221.5108" transform="translate(-32.5238 -18.2406)"/></svg>