<svg id="Layer_14" data-name="Layer 14" xmlns="http://www.w3.org/2000/svg" viewBox="0 0 221.2009 200.37"><defs><style>.cls-1{fill:none;stroke-width:4px;}.cls-1,.cls-4{stroke:#bf2026;stroke-miterlimit:10;}.cls-2{fill:#bf2629;}.cls-3{fill:#be1e2d;}.cls-4{fill:#bf2026;stroke-width:0.75px;}.cls-5{fill:#fff;}</style></defs><rect class="cls-1" x="78.1922" y="71.4732" width="141.0087" height="56.7537" rx="3"/><path class="cls-2" d="M134.9632,117.6476a14.4191,14.4191,0,1,1,14.3264,14.436A14.3333,14.3333,0,0,1,134.9632,117.6476Zm8.2238-.0109a6.1847,6.1847,0,1,0,12.3682-.1139,6.1846,6.1846,0,0,0-12.3682.1139Z" transform="translate(-16.9108 -18.6126)"/><path class="cls-2" d="M186.6909,117.6476a14.4191,14.4191,0,1,1,14.3264,14.436A14.3333,14.3333,0,0,1,186.6909,117.6476Zm8.2238-.0109a6.1848,6.1848,0,1,0,12.3683-.1139,6.1847,6.1847,0,0,0-12.3683.1139Z" transform="translate(-16.9108 -18.6126)"/><rect class="cls-1" x="127.1369" y="141.6163" width="92.064" height="56.7537" rx="3"/><path class="cls-2" d="M186.6909,187.7907a14.4191,14.4191,0,1,1,14.3264,14.436A14.3333,14.3333,0,0,1,186.6909,187.7907Zm8.2238-.0109a6.1848,6.1848,0,1,0,12.3683-.1139,6.1847,6.1847,0,0,0-12.3683.1139Z" transform="translate(-16.9108 -18.6126)"/><rect class="cls-1" x="35.373" y="2" width="183.8279" height="56.7537" rx="3"/><ellipse class="cls-3" cx="24.1261" cy="62.484" rx="2.25" ry="2.2658"/><ellipse class="cls-3" cx="24.1261" cy="71.5473" rx="2.25" ry="2.2658"/><ellipse class="cls-3" cx="24.1261" cy="80.6106" rx="2.25" ry="2.2658"/><ellipse class="cls-3" cx="24.1261" cy="89.6739" rx="2.25" ry="2.2658"/><path class="cls-3" d="M41.0752,119.6133a1.3312,1.3312,0,0,1-1.6293-.6613,2.25,2.25,0,1,1,3.182,0C42.209,119.0908,41.68,119.4172,41.0752,119.6133Z" transform="translate(-16.9108 -18.6126)"/><ellipse class="cls-3" cx="30.1726" cy="102.6153" rx="2.2658" ry="2.25"/><ellipse class="cls-3" cx="39.236" cy="102.6153" rx="2.2658" ry="2.25"/><ellipse class="cls-3" cx="48.2993" cy="102.6153" rx="2.2658" ry="2.25"/><ellipse class="cls-3" cx="57.3626" cy="102.6153" rx="2.2658" ry="2.25"/><ellipse class="cls-3" cx="72.126" cy="129.8618" rx="2.25" ry="2.2658"/><ellipse class="cls-3" cx="72.126" cy="138.9251" rx="2.25" ry="2.2658"/><ellipse class="cls-3" cx="72.126" cy="147.9885" rx="2.25" ry="2.2658"/><ellipse class="cls-3" cx="72.126" cy="157.0518" rx="2.25" ry="2.2658"/><path class="cls-3" d="M89.0751,186.9911a1.3311,1.3311,0,0,1-1.6293-.6612,2.25,2.25,0,1,1,3.182,0C90.2089,186.4687,89.68,186.7951,89.0751,186.9911Z" transform="translate(-16.9108 -18.6126)"/><ellipse class="cls-3" cx="78.1725" cy="169.9931" rx="2.2658" ry="2.25"/><ellipse class="cls-3" cx="87.2359" cy="169.9931" rx="2.2658" ry="2.25"/><ellipse class="cls-3" cx="96.2992" cy="169.9931" rx="2.2658" ry="2.25"/><ellipse class="cls-3" cx="105.3625" cy="169.9931" rx="2.2658" ry="2.25"/><circle class="cls-4" cx="27.0303" cy="30.3769" r="26.6553"/><circle class="cls-4" cx="77.0303" cy="99.8501" r="26.6553"/><circle class="cls-4" cx="128.0303" cy="170.5867" r="26.6553"/><path class="cls-5" d="M42.6942,40.7314,36.8,45.92l-3.5263-4.0667L42.86,33.7581h5.81V63.144H42.6942Z" transform="translate(-16.9108 -18.6126)"/><path class="cls-5" d="M83.69,125.8392,95.103,115.588a21.1978,21.1978,0,0,0,1.7429-1.7851,3.4166,3.4166,0,0,0,.8714-2.3239,2.8184,2.8184,0,0,0-1.0775-2.3441,3.97,3.97,0,0,0-2.5332-.8511,3.469,3.469,0,0,0-2.7157,1.0791A4.3312,4.3312,0,0,0,90.29,112.02l-6.2251-.4577a10.09,10.09,0,0,1,.9525-3.9637,8.3355,8.3355,0,0,1,2.2023-2.8018,9.2371,9.2371,0,0,1,3.2155-1.68,13.7459,13.7459,0,0,1,4.006-.5607,12.1527,12.1527,0,0,1,3.7357.5607,8.7029,8.7029,0,0,1,3.03,1.66,7.61,7.61,0,0,1,2.0131,2.76,9.5874,9.5874,0,0,1,.7262,3.8607,10.4037,10.4037,0,0,1-.29,2.5518,8.7674,8.7674,0,0,1-.8107,2.0756,9.5712,9.5712,0,0,1-1.2227,1.7226,20.2931,20.2931,0,0,1-1.5368,1.5352l-8.9239,7.6791h13.0311v5.4786H83.69Z" transform="translate(-16.9108 -18.6126)"/><path class="cls-5" d="M142.0143,184.4932h2.0334a11.5,11.5,0,0,0,1.7023-.125,4.889,4.889,0,0,0,1.5166-.4762,2.8229,2.8229,0,0,0,1.0977-.9965,3.0557,3.0557,0,0,0,.4155-1.682,2.7277,2.7277,0,0,0-1.0572-2.1989,3.9481,3.9481,0,0,0-2.5941-.8715,3.6062,3.6062,0,0,0-3.6546,2.7393l-6.8466-1.4118a9.4617,9.4617,0,0,1,1.493-3.2578,8.24,8.24,0,0,1,2.3677-2.1786,10.4234,10.4234,0,0,1,3.05-1.2244,15.4707,15.4707,0,0,1,3.55-.3952,14.6976,14.6976,0,0,1,3.756.4779,9.2175,9.2175,0,0,1,3.175,1.4947,7.4908,7.4908,0,0,1,2.1786,2.5518,7.7643,7.7643,0,0,1,.8073,3.653,6.86,6.86,0,0,1-1.2869,4.1917,5.8959,5.8959,0,0,1-3.7324,2.2411v.1249a5.7993,5.7993,0,0,1,2.3441.7887,6.3925,6.3925,0,0,1,1.7226,1.5352,6.7715,6.7715,0,0,1,1.0775,2.0756,7.9256,7.9256,0,0,1,.375,2.4488,8.3455,8.3455,0,0,1-.8512,3.859,8.0511,8.0511,0,0,1-2.2833,2.7612,9.7484,9.7484,0,0,1-3.3608,1.6382,15.1365,15.1365,0,0,1-4.09.54,12.284,12.284,0,0,1-6.7858-1.8256,8.8737,8.8737,0,0,1-3.7559-5.7691l6.5594-1.5368a4.4524,4.4524,0,0,0,1.3477,2.491,4.3807,4.3807,0,0,0,3.01.912,3.9067,3.9067,0,0,0,3.01-1.0572,3.8651,3.8651,0,0,0,.9762-2.7191,2.8408,2.8408,0,0,0-1.8679-2.947,5.9642,5.9642,0,0,0-1.8678-.3935q-1.0386-.0633-2.0773-.0625h-1.4524Z" transform="translate(-16.9108 -18.6126)"/><path class="cls-2" d="M84.139,48.1744A14.4192,14.4192,0,1,1,98.4654,62.61,14.3333,14.3333,0,0,1,84.139,48.1744Zm8.2238-.0109a6.1848,6.1848,0,1,0,12.3683-.1139,6.1847,6.1847,0,0,0-12.3683.1139Z" transform="translate(-16.9108 -18.6126)"/><path class="cls-2" d="M134.9632,48.1744A14.4191,14.4191,0,1,1,149.29,62.61,14.3333,14.3333,0,0,1,134.9632,48.1744Zm8.2238-.0109a6.1847,6.1847,0,1,0,12.3682-.1139,6.1846,6.1846,0,0,0-12.3682.1139Z" transform="translate(-16.9108 -18.6126)"/><path class="cls-2" d="M186.6909,48.1744A14.4191,14.4191,0,1,1,201.0173,62.61,14.3333,14.3333,0,0,1,186.6909,48.1744Zm8.2238-.0109A6.1848,6.1848,0,1,0,207.283,48.05a6.1847,6.1847,0,0,0-12.3683.1139Z" transform="translate(-16.9108 -18.6126)"/></svg>