<svg id="Layer_8" data-name="Layer 8" xmlns="http://www.w3.org/2000/svg" viewBox="0 0 219.0275 209.9183"><defs><style>.cls-1{fill:#bf2629;}.cls-2,.cls-3{fill:none;stroke:#fff;stroke-miterlimit:10;}.cls-2{stroke-width:5px;}.cls-3{stroke-width:7px;}</style></defs><path class="cls-1" d="M117.687,26h5.0342c.8243.1055,1.6461.2738,2.4733.3069a108.4737,108.4737,0,0,1,33.4789,6.8827c25.4869,9.4441,46.659,25.0928,64.46,45.4538,1.4967,1.7119,2.9787,3.4366,4.4675,5.1554v.8376c-1.3541,1.5619-2.7209,3.113-4.06,4.6872a164.4035,164.4035,0,0,1-37.4084,32.3849,135.0554,135.0554,0,0,1-39.3614,17.1774c-26.9437,6.8145-52.6336,2.9637-77.4214-8.8735A155.598,155.598,0,0,1,28.16,101.1933c-5.4505-5.2655-10.4074-11.04-15.635-16.634,1.744-2.18,3.0831-3.9584,4.5294-5.6453A163.22,163.22,0,0,1,63.3729,41.42a123.2837,123.2837,0,0,1,42.8665-14.2813C110.0387,26.6344,113.87,26.3727,117.687,26ZM85.3015,120.43C72.3105,106.8312,67.6785,90.97,71.4466,72.46l9.2424,1.6114c-5.179,22.85,7.87,41.4694,24.452,47.8691,18.3837,7.095,38.75.6329,49.0761-15.403a40.7052,40.7052,0,0,0-5.2528-51.124,41.14,41.14,0,0,0-56.5767-1.0867,1.3427,1.3427,0,0,1-.34-.202c-1.4939-1.6608-3.1-3.2389-4.4313-5.0219-1.052-1.41-2.0269-1.4349-3.5433-.8248A143.556,143.556,0,0,0,39.9826,76.7139c-2.5915,2.4-5.09,4.9-7.687,7.408C47.6291,100.1205,64.8514,112.6378,85.3015,120.43ZM208.0209,84.2212C192.7963,68.3231,175.55,55.7861,155.009,47.9861c9.9623,10.0892,15.2809,22.1367,15.273,36.2708-.008,14.1013-5.3372,26.1247-15.27,36.1922C175.5389,112.6512,192.7568,100.1327,208.0209,84.2212Z" transform="translate(-10.5492 -25.9997)"/><path class="cls-1" d="M94.4979,76.36,114.7542,79.74,101.62,64.9153c6.4657-7.5055,21.4477-11.1728,33.4486-3.3158a27.0518,27.0518,0,0,1-26.4234,47.0668C95.5609,102.4742,90.449,87.6756,94.4979,76.36Z" transform="translate(-10.5492 -25.9997)"/><path class="cls-2" d="M193.1047,143.1953c.17-.5231.4481-.5231.618,0l7.4525,22.9363a1.4709,1.4709,0,0,0,1.309.9511h24.1167c.55,0,.6359.2645.191.5878l-19.5108,14.1754a1.4708,1.4708,0,0,0-.5,1.5388l7.4524,22.9364c.17.5231-.055.6865-.5.3633l-19.5108-14.1755a1.4708,1.4708,0,0,0-1.618,0l-19.5108,14.1755c-.445.3232-.67.16-.5-.3633l7.4524-22.9364a1.4708,1.4708,0,0,0-.5-1.5388l-19.5108-14.1754c-.4449-.3233-.359-.5878.191-.5878h24.1167a1.4709,1.4709,0,0,0,1.309-.9511Z" transform="translate(-10.5492 -25.9997)"/><polygon class="cls-1" points="182.864 116.244 190.935 141.083 217.052 141.083 195.923 156.434 203.993 181.272 182.864 165.921 161.736 181.272 169.806 156.434 148.677 141.083 174.794 141.083 182.864 116.244"/><path class="cls-2" d="M46.4032,143.1953c.17-.5231.4481-.5231.618,0l7.4525,22.9363a1.471,1.471,0,0,0,1.309.9511H79.8994c.55,0,.636.2645.191.5878L60.58,181.8459a1.4708,1.4708,0,0,0-.5,1.5388l7.4524,22.9364c.17.5231-.055.6865-.5.3633L47.5212,192.5089a1.4708,1.4708,0,0,0-1.618,0L26.3924,206.6844c-.445.3232-.67.16-.5-.3633l7.4524-22.9364a1.4708,1.4708,0,0,0-.5-1.5388L13.334,167.6705c-.4449-.3233-.359-.5878.191-.5878H37.6417a1.4709,1.4709,0,0,0,1.309-.9511Z" transform="translate(-10.5492 -25.9997)"/><polygon class="cls-1" points="36.163 116.244 44.234 141.083 70.35 141.083 49.221 156.434 57.292 181.272 36.163 165.921 15.034 181.272 23.105 156.434 1.976 141.083 28.093 141.083 36.163 116.244"/><path class="cls-3" d="M119.9036,156.6c.17-.5231.4481-.5231.6181,0l8.962,27.5822a1.4709,1.4709,0,0,0,1.309.951h29.0016c.55,0,.636.2645.191.5878l-23.4628,17.0467a1.4709,1.4709,0,0,0-.5,1.5389l8.962,27.5822c.17.5231-.0551.6865-.5.3632l-23.4628-17.0467a1.471,1.471,0,0,0-1.6181,0L95.9408,232.252c-.4449.3233-.67.16-.5-.3632l8.962-27.5822a1.4709,1.4709,0,0,0-.5-1.5389L80.44,185.721c-.445-.3233-.359-.5878.191-.5878h29.0016a1.4709,1.4709,0,0,0,1.309-.951Z" transform="translate(-10.5492 -25.9997)"/><polygon class="cls-1" points="109.663 129.649 119.243 159.133 150.245 159.133 125.164 177.356 134.744 206.84 109.663 188.618 84.583 206.84 94.163 177.356 69.082 159.133 100.083 159.133 109.663 129.649"/></svg>