<svg id="Layer_1" data-name="Layer 1" xmlns="http://www.w3.org/2000/svg" viewBox="0 0 236.3001 225.2438"><defs><style>.cls-1{fill:#bf2629;}.cls-2,.cls-3{fill:none;}.cls-2{stroke:#bf2629;stroke-miterlimit:10;stroke-width:10px;}.cls-3{stroke:#fff;stroke-width:20px;}</style></defs><path class="cls-1" d="M37.6831,21.1982A24.8236,24.8236,0,1,1,12.8305,45.8621,24.6989,24.6989,0,0,1,37.6831,21.1982Z" transform="translate(-8.1602 -21.1982)"/><path class="cls-1" d="M171.0075,179.0321a24.8235,24.8235,0,1,1-24.8526,24.6639A24.6757,24.6757,0,0,1,171.0075,179.0321Z" transform="translate(-8.1602 -21.1982)"/><path class="cls-1" d="M142.7242,104.4344a20.5772,20.5772,0,1,1-20.6012,20.4448A20.4547,20.4547,0,0,1,142.7242,104.4344ZM142.74,116.17a8.8262,8.8262,0,1,0,.1626,17.65,8.826,8.826,0,0,0-.1626-17.65Z" transform="translate(-8.1602 -21.1982)"/><path class="cls-1" d="M106.521,25.4319A20.5772,20.5772,0,1,1,85.92,45.8767,20.4547,20.4547,0,0,1,106.521,25.4319Zm.0155,11.736a8.8261,8.8261,0,1,0,.1626,17.65,8.8259,8.8259,0,0,0-.1626-17.65Z" transform="translate(-8.1602 -21.1982)"/><path class="cls-1" d="M68.2044,104.4344a20.5772,20.5772,0,1,1-20.6012,20.4448A20.4547,20.4547,0,0,1,68.2044,104.4344ZM68.22,116.17a8.8262,8.8262,0,1,0,.1626,17.65,8.826,8.826,0,0,0-.1626-17.65Z" transform="translate(-8.1602 -21.1982)"/><path class="cls-1" d="M94.7462,183.2785A20.5771,20.5771,0,1,1,74.145,203.7233,20.4546,20.4546,0,0,1,94.7462,183.2785Zm.0155,11.7359a8.8261,8.8261,0,1,0,.1626,17.65,8.8259,8.8259,0,0,0-.1626-17.65Z" transform="translate(-8.1602 -21.1982)"/><path class="cls-2" d="M40.5283,46.009H93.006" transform="translate(-8.1602 -21.1982)"/><path class="cls-2" d="M118.2535,46.009h31.7471c21.53,0,45.9783,6.2908,46.7081,37.7233s-21.1646,39.5506-25.5435,40.4179c-.82.1623-5.0419.2857-11.4761.381" transform="translate(-8.1602 -21.1982)"/><path class="cls-2" d="M132.1806,124.7576c-17.4813.0833-37.8282.1158-54.3886.1584" transform="translate(-8.1602 -21.1982)"/><path class="cls-2" d="M54.1732,125.0115c-2.5149.0188-4.5444.0405-5.9818.0661-17.1507.3047-35.0312,17.0905-35.0312,38.9849s18.61,39.0406,32.1119,40.1376c5.1627.4194,13.4547.5834,35.9206.6259" transform="translate(-8.1602 -21.1982)"/><path class="cls-2" d="M110.7457,204.8236c26.6375-.0444,61.5142-.1772,61.5142-.1772" transform="translate(-8.1602 -21.1982)"/><path class="cls-3" d="M234.46,106.8954c-1.1786,4.3571-4.24,7.3637-7.3477,10.365-1.9795,1.9114-3.83,3.9558-5.583,5.7781l-35.5821-35.583c3.6913-3.4791,7.3505-7.5794,11.6577-10.8179,5.0588-3.8037,12.0912-2.7292,16.629,1.7851,5.4452,5.417,10.9928,10.74,16.2256,16.3563,1.7592,1.8879,2.6907,4.547,4,6.8536Z" transform="translate(-8.1602 -21.1982)"/><path class="cls-3" d="M72.5272,236.442q2.1329-14.28,4.2668-28.56c.607-4.0537,1.227-8.1055,1.7974-11.87L112.95,230.3691c-5.9091.9052-12.1338,1.8678-18.3617,2.81-6.4565.9768-12.9164,1.9311-19.3726,2.91a2.3168,2.3168,0,0,0-.6641.3524Z" transform="translate(-8.1602 -21.1982)"/><path class="cls-3" d="M117.9205,225.5756l-34.6347-34.642L181.35,92.8711l4.4713,4.66L93.0669,190.2857l5.1082,4.9416,92.4873-92.49,25.0468,25.05Z" transform="translate(-8.1602 -21.1982)"/><path class="cls-1" d="M234.46,106.8954c-1.1786,4.3571-4.24,7.3637-7.3477,10.365-1.9795,1.9114-3.83,3.9558-5.583,5.7781l-35.5821-35.583c3.6913-3.4791,7.3505-7.5794,11.6577-10.8179,5.0588-3.8037,12.0912-2.7292,16.629,1.7851,5.4452,5.417,10.9928,10.74,16.2256,16.3563,1.7592,1.8879,2.6907,4.547,4,6.8536Z" transform="translate(-8.1602 -21.1982)"/><path class="cls-1" d="M72.5272,236.442q2.1329-14.28,4.2668-28.56c.607-4.0537,1.227-8.1055,1.7974-11.87L112.95,230.3691c-5.9091.9052-12.1338,1.8678-18.3617,2.81-6.4565.9768-12.9164,1.9311-19.3726,2.91a2.3168,2.3168,0,0,0-.6641.3524Z" transform="translate(-8.1602 -21.1982)"/><path class="cls-1" d="M117.9205,225.5756l-34.6347-34.642L181.35,92.8711l4.4713,4.66L93.0669,190.2857l5.1082,4.9416,92.4873-92.49,25.0468,25.05Z" transform="translate(-8.1602 -21.1982)"/></svg>